# Blender 4.1.0
# www.blender.org
mtllib CatnipBall1.mtl
o Cube
v -0.500000 1.347393 0.500000
v -0.500000 1.347393 -0.500000
v -0.500000 0.347393 0.500000
v -0.500000 0.347393 -0.500000
v 0.500000 1.347393 0.500000
v 0.500000 1.347393 -0.500000
v 0.500000 0.347393 0.500000
v 0.500000 0.347393 -0.500000
v -0.572933 0.550743 0.572933
v -0.572933 1.144043 0.572933
v -0.572933 1.420326 0.296650
v -0.609568 1.456961 -0.000000
v -0.572933 1.420326 -0.296650
v -0.572933 1.144043 -0.572933
v -0.572933 0.550743 -0.572933
v -0.572933 0.274460 -0.296650
v -0.609568 0.237825 0.000000
v -0.572933 0.274460 0.296650
v 0.296650 0.274460 0.572933
v 0.000000 0.237825 0.609568
v -0.296650 0.274460 0.572933
v -0.296650 0.274460 -0.572933
v -0.000000 0.237825 -0.609568
v 0.296650 0.274460 -0.572933
v 0.572933 0.274460 -0.296650
v 0.609568 0.237825 0.000000
v 0.572933 0.274460 0.296650
v 0.572933 1.144043 0.572933
v 0.572933 0.550743 0.572933
v 0.572933 0.550743 -0.572933
v 0.572933 1.144043 -0.572933
v 0.572933 1.420326 -0.296650
v 0.609568 1.456961 -0.000000
v 0.572933 1.420326 0.296650
v -0.296650 1.420326 0.572933
v -0.000000 1.456961 0.609568
v 0.296650 1.420326 0.572933
v 0.296650 1.420326 -0.572933
v -0.000000 1.456961 -0.609568
v -0.296650 1.420326 -0.572933
v -0.728990 1.163550 0.316157
v -0.781829 1.180533 -0.000000
v -0.728990 1.163550 -0.316157
v -0.728990 0.531236 0.316157
v -0.781829 0.514252 0.000000
v -0.728990 0.531236 -0.316157
v -0.316157 0.118403 0.316157
v -0.333140 0.065564 0.000000
v -0.316157 0.118403 -0.316157
v 0.000000 0.065564 0.333141
v 0.000000 0.007887 0.000000
v -0.000000 0.065564 -0.333140
v 0.316157 0.118403 0.316157
v 0.333140 0.065564 0.000000
v 0.316157 0.118403 -0.316157
v 0.728990 0.531236 0.316157
v 0.781829 0.514252 0.000000
v 0.728990 0.531236 -0.316157
v 0.728990 1.163550 0.316157
v 0.781829 1.180533 -0.000000
v 0.728990 1.163550 -0.316157
v 0.316157 1.576383 0.316157
v 0.333140 1.629222 -0.000000
v 0.316157 1.576383 -0.316157
v -0.000000 1.629222 0.333140
v -0.000000 1.686899 -0.000000
v 0.000000 1.629222 -0.333140
v -0.316157 1.576383 0.316157
v -0.333140 1.629222 -0.000000
v -0.316157 1.576383 -0.316157
v -0.316157 0.531236 0.728990
v -0.000000 0.514252 0.781829
v 0.316157 0.531236 0.728990
v -0.316157 1.163550 0.728990
v 0.000000 1.180533 0.781829
v 0.316157 1.163550 0.728990
v 0.316157 0.531236 -0.728990
v 0.000000 0.514252 -0.781829
v -0.316157 0.531236 -0.728990
v 0.316157 1.163550 -0.728990
v -0.000000 1.180533 -0.781829
v -0.316157 1.163550 -0.728990
v -0.598127 0.754752 0.598127
v -0.598127 0.940034 0.598127
v -0.598127 0.940034 -0.598127
v -0.598127 0.754752 -0.598127
v 0.598127 0.940034 0.598127
v 0.598127 0.754752 0.598127
v 0.598127 0.754752 -0.598127
v 0.598127 0.940034 -0.598127
v -0.766346 0.754755 0.328164
v -0.766346 0.940031 0.328164
v -0.823459 0.940080 -0.000000
v -0.823459 0.754706 -0.000000
v -0.766346 0.940031 -0.328164
v -0.766346 0.754755 -0.328164
v 0.766346 0.940031 0.328164
v 0.766346 0.754755 0.328164
v 0.823459 0.754706 0.000000
v 0.823459 0.940080 -0.000000
v 0.766346 0.754755 -0.328164
v 0.766346 0.940031 -0.328164
v -0.328164 0.940031 0.766346
v -0.328164 0.754755 0.766346
v -0.000000 0.754706 0.823459
v 0.000000 0.940080 0.823459
v 0.328164 0.754755 0.766346
v 0.328164 0.940031 0.766346
v 0.328164 0.940031 -0.766346
v 0.328164 0.754755 -0.766346
v 0.000000 0.754706 -0.823459
v -0.000000 0.940080 -0.823459
v -0.328164 0.754755 -0.766346
v -0.328164 0.940031 -0.766346
v -0.623689 0.805109 0.623689
v -0.623689 0.889677 0.623689
v -0.633065 0.847393 0.633065
v -0.623689 0.889677 -0.623689
v -0.623689 0.805109 -0.623689
v -0.633065 0.847393 -0.633065
v 0.623689 0.889677 0.623689
v 0.623689 0.805109 0.623689
v 0.633065 0.847393 0.633065
v 0.623689 0.805109 -0.623689
v 0.623689 0.889677 -0.623689
v 0.633065 0.847393 -0.633065
v -0.799348 0.805109 0.341793
v -0.799348 0.889677 0.341793
v -0.811408 0.847393 0.346863
v -0.858742 0.889681 -0.000000
v -0.858742 0.805105 -0.000000
v -0.871666 0.847393 -0.000000
v -0.799348 0.889677 -0.341793
v -0.799348 0.805109 -0.341793
v -0.811408 0.847393 -0.346863
v 0.799348 0.889677 0.341793
v 0.799348 0.805109 0.341793
v 0.811408 0.847393 0.346863
v 0.858742 0.805105 -0.000000
v 0.858742 0.889681 -0.000000
v 0.871666 0.847393 -0.000000
v 0.799348 0.805109 -0.341793
v 0.799348 0.889677 -0.341793
v 0.811408 0.847393 -0.346863
v -0.341793 0.889677 0.799348
v -0.341793 0.805109 0.799348
v -0.346863 0.847393 0.811408
v 0.000000 0.805105 0.858742
v 0.000000 0.889681 0.858742
v 0.000000 0.847393 0.871666
v 0.341793 0.805109 0.799348
v 0.341793 0.889677 0.799348
v 0.346863 0.847393 0.811408
v 0.341793 0.889677 -0.799348
v 0.341793 0.805109 -0.799348
v 0.346863 0.847393 -0.811408
v 0.000000 0.805105 -0.858742
v -0.000000 0.889681 -0.858742
v -0.000000 0.847393 -0.871666
v -0.341793 0.805109 -0.799348
v -0.341793 0.889677 -0.799348
v -0.346863 0.847393 -0.811408
vn -0.9707 -0.1697 0.1701
vn -0.9707 -0.1697 -0.1701
vn -0.9707 0.1697 -0.1701
vn 0.9707 -0.1697 0.1701
vn -0.7504 0.4674 0.4674
vn -0.8367 0.5213 0.1678
vn -0.8367 0.5213 -0.1678
vn -0.7504 0.4674 -0.4674
vn -0.5213 -0.1678 -0.8367
vn -0.8367 0.1678 -0.5213
vn -0.7504 -0.4674 -0.4674
vn -0.8367 -0.5213 -0.1678
vn -0.8367 -0.5213 0.1678
vn -0.7504 -0.4674 0.4674
vn -0.5213 0.1678 0.8367
vn -0.8367 -0.1678 0.5213
vn -0.1697 -0.9708 0.1697
vn -0.1697 -0.9708 -0.1697
vn 0.1697 -0.9708 0.1697
vn 0.1697 -0.9708 -0.1697
vn -0.4674 -0.7504 0.4674
vn -0.5213 -0.8367 0.1678
vn -0.5213 -0.8367 -0.1678
vn -0.4674 -0.7504 -0.4674
vn -0.1678 -0.8367 -0.5213
vn 0.1678 -0.8367 -0.5213
vn 0.4674 -0.7504 -0.4674
vn 0.5213 -0.8367 -0.1678
vn 0.5213 -0.8367 0.1678
vn 0.4674 -0.7504 0.4674
vn 0.1678 -0.8367 0.5213
vn -0.1678 -0.8367 0.5213
vn 0.9707 0.1697 0.1701
vn 0.9707 0.1697 -0.1701
vn 0.9707 -0.1697 -0.1701
vn -0.1701 -0.1697 0.9707
vn 0.7504 -0.4674 0.4674
vn 0.8367 -0.5213 0.1678
vn 0.8367 -0.5213 -0.1678
vn 0.7504 -0.4674 -0.4674
vn 0.5213 0.1678 -0.8367
vn 0.8367 -0.1678 -0.5213
vn 0.7504 0.4674 -0.4674
vn 0.8367 0.5213 -0.1678
vn 0.8367 0.5213 0.1678
vn 0.7504 0.4674 0.4674
vn 0.5213 -0.1678 0.8367
vn 0.8367 0.1678 0.5213
vn 0.1697 0.9708 0.1697
vn 0.1697 0.9708 -0.1697
vn -0.1697 0.9708 0.1697
vn -0.1697 0.9708 -0.1697
vn 0.4674 0.7504 0.4674
vn 0.5213 0.8367 0.1678
vn 0.5213 0.8367 -0.1678
vn 0.4674 0.7504 -0.4674
vn 0.1678 0.8367 -0.5213
vn -0.1678 0.8367 -0.5213
vn -0.4674 0.7504 -0.4674
vn -0.5213 0.8367 -0.1678
vn -0.5213 0.8367 0.1678
vn -0.4674 0.7504 0.4674
vn -0.1678 0.8367 0.5213
vn 0.1678 0.8367 0.5213
vn -0.1701 0.1697 0.9707
vn 0.1701 0.1697 0.9707
vn 0.1701 -0.1697 0.9707
vn 0.1701 -0.1697 -0.9707
vn -0.4674 -0.4674 0.7504
vn -0.1678 -0.5213 0.8367
vn 0.1678 -0.5213 0.8367
vn 0.4674 -0.4674 0.7504
vn 0.5213 -0.1678 -0.8367
vn 0.8367 -0.1678 0.5213
vn 0.4674 0.4674 0.7504
vn 0.1678 0.5213 0.8367
vn -0.1678 0.5213 0.8367
vn -0.4674 0.4674 0.7504
vn -0.5213 0.1678 -0.8367
vn -0.8367 0.1678 0.5213
vn 0.1701 0.1697 -0.9707
vn -0.1701 0.1697 -0.9707
vn -0.1701 -0.1697 -0.9707
vn 0.4674 -0.4674 -0.7504
vn 0.1678 -0.5213 -0.8367
vn -0.1678 -0.5213 -0.8367
vn -0.4674 -0.4674 -0.7504
vn 0.5213 0.1678 0.8367
vn -0.8367 -0.1678 -0.5213
vn -0.4674 0.4674 -0.7504
vn -0.1678 0.5213 -0.8367
vn 0.1678 0.5213 -0.8367
vn 0.4674 0.4674 -0.7504
vn -0.9707 0.1697 0.1701
vn 0.8367 0.1678 -0.5213
vn -0.8106 -0.5684 0.1410
vn -0.8106 0.5684 -0.1410
vn -0.8106 -0.5684 -0.1410
vn 0.8106 -0.5684 0.1410
vn -0.6955 0.5731 -0.4334
vn -0.4334 0.5731 -0.6955
vn -0.6955 -0.5731 0.4334
vn -0.4334 -0.5731 0.6955
vn 0.8106 0.5684 0.1410
vn 0.8106 -0.5684 -0.1410
vn 0.8106 0.5684 -0.1410
vn -0.1410 -0.5684 0.8106
vn 0.6955 -0.5731 -0.4334
vn 0.4334 -0.5731 -0.6955
vn 0.6955 0.5731 0.4334
vn 0.4334 0.5731 0.6955
vn -0.1410 0.5684 0.8106
vn 0.1410 -0.5684 0.8106
vn 0.1410 0.5684 0.8106
vn 0.1410 -0.5684 -0.8106
vn 0.4334 0.5731 -0.6955
vn 0.6955 -0.5731 0.4334
vn -0.4334 -0.5731 -0.6955
vn -0.6955 0.5731 0.4334
vn 0.1410 0.5684 -0.8106
vn -0.1410 -0.5684 -0.8106
vn -0.1410 0.5684 -0.8106
vn 0.4334 -0.5731 0.6955
vn -0.6955 -0.5731 -0.4334
vn -0.8106 0.5684 0.1410
vn 0.6955 0.5731 -0.4334
vn -0.5213 -0.1678 0.8367
vn -0.9433 -0.2885 0.1639
vn -0.9433 0.2885 0.1639
vn -0.9433 -0.2885 -0.1639
vn -0.9433 0.2885 -0.1639
vn -0.8117 0.2921 -0.5058
vn -0.8117 -0.2921 -0.5058
vn -0.8117 -0.2921 0.5058
vn -0.8117 0.2921 0.5058
vn 0.9433 0.2885 0.1639
vn 0.9433 -0.2885 0.1639
vn 0.9433 0.2885 -0.1639
vn 0.9433 -0.2885 -0.1639
vn 0.8117 -0.2921 -0.5058
vn 0.8117 0.2921 -0.5058
vn 0.8117 0.2921 0.5058
vn 0.8117 -0.2921 0.5058
vn -0.1639 0.2885 0.9433
vn -0.1639 -0.2885 0.9433
vn 0.1639 0.2885 0.9433
vn 0.1639 -0.2885 0.9433
vn 0.5058 -0.2921 0.8117
vn 0.5058 0.2921 0.8117
vn -0.5058 0.2921 0.8117
vn -0.5058 -0.2921 0.8117
vn 0.1639 0.2885 -0.9433
vn 0.1639 -0.2885 -0.9433
vn -0.1639 0.2885 -0.9433
vn -0.1639 -0.2885 -0.9433
vn -0.5058 -0.2921 -0.8117
vn -0.5058 0.2921 -0.8117
vn 0.5058 0.2921 -0.8117
vn 0.5058 -0.2921 -0.8117
vn -0.4334 0.5731 0.6955
vt 0.477397 0.682961
vt 0.445767 0.761684
vt 0.398364 0.728494
vt 0.426980 0.672500
vt 0.382612 0.818334
vt 0.355536 0.774537
vt 0.186524 0.089152
vt 0.140481 0.131980
vt 0.096684 0.104904
vt 0.153334 0.041749
vt 0.191994 0.507969
vt 0.149166 0.554011
vt 0.101763 0.520821
vt 0.164919 0.464171
vt 0.294510 0.096114
vt 0.259840 0.111394
vt 0.242518 0.060536
vt 0.301815 0.054690
vt 0.219546 0.136314
vt 0.182346 0.165653
vt 0.156129 0.193006
vt 0.114704 0.185701
vt 0.242518 0.794467
vt 0.301815 0.800314
vt 0.309675 0.844884
vt 0.232056 0.844884
vt 0.070134 0.177841
vt 0.294510 0.758889
vt 0.321863 0.732671
vt 0.351202 0.695472
vt 0.376122 0.655178
vt 0.432826 0.613203
vt 0.391402 0.620508
vt 0.309675 0.010119
vt 0.382612 0.036670
vt 0.355537 0.080467
vt 0.477397 0.605343
vt 0.337594 0.629997
vt 0.312405 0.668307
vt 0.273765 0.641253
vt 0.300820 0.602613
vt 0.285021 0.705082
vt 0.246711 0.679892
vt 0.235125 0.614198
vt 0.262509 0.577424
vt 0.209936 0.652509
vt 0.365184 0.593155
vt 0.259840 0.743609
vt 0.219546 0.718689
vt 0.182346 0.689350
vt 0.156129 0.661998
vt 0.171409 0.627327
vt 0.196328 0.587033
vt 0.225668 0.549834
vt 0.287691 0.538896
vt 0.253020 0.523616
vt 0.327985 0.563816
vt 0.450847 0.322598
vt 0.394197 0.385753
vt 0.361007 0.338350
vt 0.407049 0.295522
vt 0.315474 0.417382
vt 0.305013 0.366966
vt 0.120551 0.610005
vt 0.070134 0.599544
vt 0.407049 0.559482
vt 0.361007 0.516653
vt 0.394197 0.469251
vt 0.450847 0.532406
vt 0.245715 0.482192
vt 0.114704 0.669303
vt 0.237855 0.417382
vt 0.164919 0.390832
vt 0.191994 0.347035
vt 0.245715 0.372812
vt 0.070134 0.677163
vt 0.253020 0.331387
vt 0.287691 0.316107
vt 0.327985 0.291188
vt 0.365184 0.261848
vt 0.432826 0.241801
vt 0.391402 0.234496
vt 0.305013 0.488038
vt 0.237855 0.437621
vt 0.315474 0.437621
vt 0.477397 0.249661
vt 0.337594 0.225007
vt 0.300820 0.252391
vt 0.273765 0.213751
vt 0.312405 0.186696
vt 0.262509 0.277580
vt 0.235126 0.240806
vt 0.246711 0.175111
vt 0.285021 0.149922
vt 0.209936 0.202495
vt 0.376122 0.199825
vt 0.225668 0.305170
vt 0.196329 0.267970
vt 0.171409 0.227676
vt 0.321863 0.122332
vt 0.351202 0.159531
vt 0.445767 0.093319
vt 0.398365 0.126509
vt 0.477397 0.172042
vt 0.426980 0.182503
vt 0.140481 0.723024
vt 0.186524 0.765852
vt 0.153334 0.813254
vt 0.096684 0.750099
vt 0.070134 0.255460
vt 0.120551 0.244998
vt 0.232057 0.010119
vt 0.101764 0.334183
vt 0.149166 0.300992
vt 0.038069 0.074588
vt 0.038388 0.010569
vt 0.049895 0.011788
vt 0.049443 0.074435
vt 0.010119 0.988212
vt 0.010572 0.925567
vt 0.021945 0.925414
vt 0.021626 0.989431
vt 0.038388 0.989431
vt 0.038069 0.925414
vt 0.049442 0.925567
vt 0.049894 0.988212
vt 0.049408 0.438432
vt 0.049011 0.500005
vt 0.037949 0.500005
vt 0.038074 0.438223
vt 0.021816 0.865368
vt 0.010160 0.865366
vt 0.010606 0.805152
vt 0.021940 0.805361
vt 0.038198 0.134635
vt 0.049854 0.134638
vt 0.049408 0.194853
vt 0.038074 0.194644
vt 0.021940 0.438223
vt 0.022065 0.500005
vt 0.011003 0.500005
vt 0.010606 0.438432
vt 0.049407 0.561578
vt 0.038074 0.561787
vt 0.021940 0.561787
vt 0.010606 0.561578
vt 0.049011 0.256427
vt 0.037949 0.256427
vt 0.038197 0.621793
vt 0.049853 0.621793
vt 0.049407 0.682008
vt 0.038074 0.681799
vt 0.021817 0.378216
vt 0.010161 0.378216
vt 0.010606 0.318000
vt 0.021940 0.318209
vt 0.021940 0.194644
vt 0.022065 0.256427
vt 0.011003 0.256427
vt 0.010606 0.194853
vt 0.049408 0.318000
vt 0.038074 0.318209
vt 0.049011 0.743580
vt 0.037949 0.743580
vt 0.021817 0.621793
vt 0.021940 0.681799
vt 0.010606 0.682008
vt 0.010161 0.621793
vt 0.049853 0.378216
vt 0.038197 0.378216
vt 0.038198 0.865368
vt 0.038074 0.805361
vt 0.049407 0.805152
vt 0.049853 0.865366
vt 0.010160 0.134638
vt 0.010572 0.074435
vt 0.021945 0.074588
vt 0.021816 0.134635
vt 0.022065 0.743580
vt 0.011003 0.743580
vt 0.010119 0.011788
vt 0.021626 0.010569
vt 0.030007 0.074688
vt 0.030007 0.010119
vt 0.030007 0.989881
vt 0.030007 0.925314
vt 0.030007 0.865369
vt 0.030007 0.134635
vt 0.030007 0.438114
vt 0.030007 0.500005
vt 0.030007 0.561896
vt 0.030007 0.621793
vt 0.030007 0.378216
vt 0.030007 0.194535
vt 0.030007 0.256427
vt 0.030007 0.318318
vt 0.030007 0.681690
vt 0.030007 0.743580
vt 0.030007 0.805470
s 0
f 91/1/1 94/2/1 45/3/1 44/4/1
f 94/2/2 96/5/2 46/6/2 45/3/2
f 42/7/3 43/8/3 95/9/3 93/10/3
f 56/11/4 57/12/4 99/13/4 98/14/4
f 1/15/5 11/16/5 41/17/5 10/18/5
f 11/16/6 12/19/6 42/7/6 41/17/6
f 12/19/7 13/20/7 43/8/7 42/7/7
f 13/20/8 2/21/8 14/22/8 43/8/8
f 79/23/9 15/24/9 86/25/9 113/26/9
f 43/8/10 14/22/10 85/27/10 95/9/10
f 46/6/11 15/24/11 4/28/11 16/29/11
f 45/3/12 46/6/12 16/29/12 17/30/12
f 44/4/13 45/3/13 17/30/13 18/31/13
f 9/32/14 44/4/14 18/31/14 3/33/14
f 84/34/15 103/35/15 74/36/15 10/18/15
f 83/37/16 91/1/16 44/4/16 9/32/16
f 47/38/17 48/39/17 51/40/17 50/41/17
f 48/39/18 49/42/18 52/43/18 51/40/18
f 50/41/19 51/40/19 54/44/19 53/45/19
f 51/40/20 52/43/20 55/46/20 54/44/20
f 3/33/21 18/31/21 47/38/21 21/47/21
f 18/31/22 17/30/22 48/39/22 47/38/22
f 17/30/23 16/29/23 49/42/23 48/39/23
f 16/29/24 4/28/24 22/48/24 49/42/24
f 49/42/25 22/48/25 23/49/25 52/43/25
f 52/43/26 23/49/26 24/50/26 55/46/26
f 55/46/27 24/50/27 8/51/27 25/52/27
f 54/44/28 55/46/28 25/52/28 26/53/28
f 53/45/29 54/44/29 26/53/29 27/54/29
f 19/55/30 53/45/30 27/54/30 7/56/30
f 20/57/31 50/41/31 53/45/31 19/55/31
f 21/47/32 47/38/32 50/41/32 20/57/32
f 97/58/33 100/59/33 60/60/33 59/61/33
f 100/59/34 102/62/34 61/63/34 60/60/34
f 57/12/35 58/64/35 101/65/35 99/13/35
f 71/66/36 72/67/36 105/68/36 104/69/36
f 7/56/37 27/54/37 56/11/37 29/70/37
f 27/54/38 26/53/38 57/12/38 56/11/38
f 26/53/39 25/52/39 58/64/39 57/12/39
f 25/52/40 8/51/40 30/71/40 58/64/40
f 90/72/41 109/73/41 80/74/41 31/75/41
f 58/64/42 30/71/42 89/76/42 101/65/42
f 61/63/43 31/75/43 6/77/43 32/78/43
f 60/60/44 61/63/44 32/78/44 33/79/44
f 59/61/45 60/60/45 33/79/45 34/80/45
f 28/81/46 59/61/46 34/80/46 5/82/46
f 73/83/47 29/70/47 88/84/47 107/85/47
f 87/86/48 97/58/48 59/61/48 28/81/48
f 62/87/49 63/88/49 66/89/49 65/90/49
f 63/88/50 64/91/50 67/92/50 66/89/50
f 65/90/51 66/89/51 69/93/51 68/94/51
f 66/89/52 67/92/52 70/95/52 69/93/52
f 5/82/53 34/80/53 62/87/53 37/96/53
f 34/80/54 33/79/54 63/88/54 62/87/54
f 33/79/55 32/78/55 64/91/55 63/88/55
f 32/78/56 6/77/56 38/97/56 64/91/56
f 64/91/57 38/97/57 39/98/57 67/92/57
f 67/92/58 39/98/58 40/99/58 70/95/58
f 70/95/59 40/99/59 2/21/59 13/20/59
f 69/93/60 70/95/60 13/20/60 12/19/60
f 68/94/61 69/93/61 12/19/61 11/16/61
f 35/100/62 68/94/62 11/16/62 1/15/62
f 36/101/63 65/90/63 68/94/63 35/100/63
f 37/96/64 62/87/64 65/90/64 36/101/64
f 103/35/65 106/102/65 75/103/65 74/36/65
f 106/102/66 108/104/66 76/105/66 75/103/66
f 72/67/67 73/83/67 107/85/67 105/68/67
f 77/106/68 78/107/68 111/108/68 110/109/68
f 3/33/69 21/47/69 71/66/69 9/32/69
f 21/47/70 20/57/70 72/67/70 71/66/70
f 20/57/71 19/55/71 73/83/71 72/67/71
f 19/55/72 7/56/72 29/70/72 73/83/72
f 30/71/73 77/106/73 110/109/73 89/76/73
f 29/70/74 56/11/74 98/14/74 88/84/74
f 76/105/75 28/81/75 5/82/75 37/96/75
f 75/103/76 76/105/76 37/96/76 36/101/76
f 74/36/77 75/103/77 36/101/77 35/100/77
f 10/18/78 74/36/78 35/100/78 1/15/78
f 114/110/79 85/27/79 14/22/79 82/111/79
f 10/18/80 41/17/80 92/112/80 84/34/80
f 109/73/81 112/113/81 81/114/81 80/74/81
f 112/113/82 114/110/82 82/111/82 81/114/82
f 78/107/83 79/23/83 113/26/83 111/108/83
f 8/51/84 24/50/84 77/106/84 30/71/84
f 24/50/85 23/49/85 78/107/85 77/106/85
f 23/49/86 22/48/86 79/23/86 78/107/86
f 22/48/87 4/28/87 15/24/87 79/23/87
f 108/104/88 87/86/88 28/81/88 76/105/88
f 96/5/89 86/25/89 15/24/89 46/6/89
f 82/111/90 14/22/90 2/21/90 40/99/90
f 81/114/91 82/111/91 40/99/91 39/98/91
f 80/74/92 81/114/92 39/98/92 38/97/92
f 31/75/93 80/74/93 38/97/93 6/77/93
f 41/17/94 42/7/94 93/10/94 92/112/94
f 102/62/95 90/72/95 31/75/95 61/63/95
f 127/115/96 131/116/96 94/117/96 91/118/96
f 93/119/97 95/120/97 133/121/97 130/122/97
f 131/123/98 134/124/98 96/125/98 94/126/98
f 98/127/99 99/128/99 139/129/99 137/130/99
f 118/131/100 133/121/100 95/120/100 85/132/100
f 85/132/101 114/133/101 161/134/101 118/131/101
f 115/135/102 127/115/102 91/118/102 83/136/102
f 83/136/103 104/137/103 146/138/103 115/135/103
f 136/139/104 140/140/104 100/141/104 97/142/104
f 99/128/105 101/143/105 142/144/105 139/129/105
f 140/140/106 143/145/106 102/146/106 100/141/106
f 104/137/107 105/147/107 148/148/107 146/138/107
f 124/149/108 142/144/108 101/143/108 89/150/108
f 89/150/109 110/151/109 155/152/109 124/149/109
f 121/153/110 136/139/110 97/142/110 87/154/110
f 87/154/111 108/155/111 152/156/111 121/153/111
f 145/157/112 149/158/112 106/159/112 103/160/112
f 105/147/113 107/161/113 151/162/113 148/148/113
f 149/158/114 152/156/114 108/155/114 106/159/114
f 110/151/115 111/163/115 157/164/115 155/152/115
f 125/165/116 154/166/116 109/167/116 90/168/116
f 88/169/117 98/127/117 137/130/117 122/170/117
f 119/171/118 160/172/118 113/173/118 86/174/118
f 84/175/119 92/176/119 128/177/119 116/178/119
f 154/166/120 158/179/120 112/180/120 109/167/120
f 111/163/121 113/173/121 160/172/121 157/164/121
f 158/179/122 161/134/122 114/133/122 112/180/122
f 122/170/123 151/162/123 107/161/123 88/169/123
f 86/174/124 96/125/124 134/124/124 119/171/124
f 92/176/125 93/181/125 130/182/125 128/177/125
f 90/168/126 102/146/126 143/145/126 125/165/126
f 9/32/127 71/66/127 104/69/127 83/37/127
f 131/116/128 127/115/128 129/183/128 132/184/128
f 132/184/129 129/183/129 128/177/129 130/182/129
f 134/124/130 131/123/130 132/185/130 135/186/130
f 135/186/131 132/185/131 130/122/131 133/121/131
f 133/121/132 118/131/132 120/187/132 135/186/132
f 135/186/133 120/187/133 119/171/133 134/124/133
f 127/115/134 115/135/134 117/188/134 129/183/134
f 129/183/135 117/188/135 116/178/135 128/177/135
f 140/140/136 136/139/136 138/189/136 141/190/136
f 141/190/137 138/189/137 137/130/137 139/129/137
f 143/145/138 140/140/138 141/190/138 144/191/138
f 144/191/139 141/190/139 139/129/139 142/144/139
f 142/144/140 124/149/140 126/192/140 144/191/140
f 144/191/141 126/192/141 125/165/141 143/145/141
f 136/139/142 121/153/142 123/193/142 138/189/142
f 138/189/143 123/193/143 122/170/143 137/130/143
f 149/158/144 145/157/144 147/194/144 150/195/144
f 150/195/145 147/194/145 146/138/145 148/148/145
f 152/156/146 149/158/146 150/195/146 153/196/146
f 153/196/147 150/195/147 148/148/147 151/162/147
f 151/162/148 122/170/148 123/193/148 153/196/148
f 153/196/149 123/193/149 121/153/149 152/156/149
f 145/157/150 116/178/150 117/188/150 147/194/150
f 147/194/151 117/188/151 115/135/151 146/138/151
f 158/179/152 154/166/152 156/197/152 159/198/152
f 159/198/153 156/197/153 155/152/153 157/164/153
f 161/134/154 158/179/154 159/198/154 162/199/154
f 162/199/155 159/198/155 157/164/155 160/172/155
f 160/172/156 119/171/156 120/187/156 162/199/156
f 162/199/157 120/187/157 118/131/157 161/134/157
f 154/166/158 125/165/158 126/192/158 156/197/158
f 156/197/159 126/192/159 124/149/159 155/152/159
f 116/178/160 145/157/160 103/160/160 84/175/160
