# Blender 4.1.0
# www.blender.org
mtllib Glass.mtl
o Cylinder.003
v -0.000000 3.807219 -0.998485
v 0.499242 3.807219 -0.864713
v 0.864713 3.807219 -0.499242
v 0.998485 3.807219 -0.000000
v 0.864713 3.807219 0.499242
v 0.499242 3.807219 0.864713
v -0.000000 3.807219 0.998485
v -0.499242 3.807219 0.864713
v -0.864713 3.807219 0.499242
v -0.998485 3.807219 -0.000000
v -0.864713 3.807219 -0.499242
v -0.499242 3.807219 -0.864713
v 0.551787 3.807219 -0.955723
v -0.000000 3.807219 -1.103574
v 0.955723 3.807219 -0.551787
v 1.103574 3.807219 -0.000000
v 0.955723 3.807219 0.551787
v 0.551787 3.807219 0.955723
v -0.000000 3.807219 1.103574
v -0.551787 3.807219 0.955723
v -0.955723 3.807219 0.551787
v -1.103574 3.807219 -0.000000
v -0.955723 3.807219 -0.551787
v -0.551787 3.807219 -0.955723
v 0.000000 -0.001618 -0.606786
v 0.000000 0.142492 -0.765486
v 0.000000 0.040591 -0.715185
v 0.303393 -0.001618 -0.525492
v 0.382743 0.142492 -0.662931
v 0.357592 0.040591 -0.619368
v 0.525492 -0.001618 -0.303393
v 0.662931 0.142492 -0.382743
v 0.619368 0.040591 -0.357592
v 0.606786 -0.001618 0.000000
v 0.765486 0.142492 0.000000
v 0.715185 0.040591 0.000000
v 0.525492 -0.001618 0.303393
v 0.662931 0.142492 0.382743
v 0.619368 0.040591 0.357592
v 0.303393 -0.001618 0.525492
v 0.382743 0.142492 0.662931
v 0.357592 0.040591 0.619368
v 0.000000 -0.001618 0.606786
v 0.000000 0.142492 0.765486
v 0.000000 0.040591 0.715185
v -0.303393 -0.001618 0.525492
v -0.382743 0.142492 0.662931
v -0.357592 0.040591 0.619368
v -0.525492 -0.001618 0.303393
v -0.662931 0.142492 0.382743
v -0.619368 0.040591 0.357592
v -0.606786 -0.001618 0.000000
v -0.765486 0.142492 0.000000
v -0.715185 0.040591 0.000000
v -0.525492 -0.001618 -0.303393
v -0.662931 0.142492 -0.382743
v -0.619368 0.040591 -0.357592
v -0.303393 -0.001618 -0.525492
v -0.382743 0.142492 -0.662931
v -0.357592 0.040591 -0.619368
v 0.255683 0.066292 -0.442856
v 0.335120 0.210391 -0.580445
v 0.309908 0.108498 -0.536776
v 0.000000 0.210391 -0.670240
v 0.000000 0.066292 -0.511366
v 0.000000 0.108498 -0.619815
v 0.442856 0.066292 -0.255683
v 0.580445 0.210391 -0.335120
v 0.536776 0.108498 -0.309908
v 0.511366 0.066292 0.000000
v 0.670241 0.210391 -0.000000
v 0.619815 0.108498 -0.000000
v 0.442856 0.066292 0.255683
v 0.580445 0.210391 0.335120
v 0.536776 0.108498 0.309908
v 0.255683 0.066292 0.442856
v 0.335120 0.210391 0.580445
v 0.309908 0.108498 0.536776
v 0.000000 0.066292 0.511366
v 0.000000 0.210391 0.670240
v 0.000000 0.108498 0.619815
v -0.255683 0.066292 0.442856
v -0.335120 0.210391 0.580445
v -0.309907 0.108498 0.536776
v -0.442856 0.066292 0.255683
v -0.580445 0.210391 0.335120
v -0.536775 0.108498 0.309908
v -0.511366 0.066292 0.000000
v -0.670240 0.210391 -0.000000
v -0.619815 0.108498 -0.000000
v -0.442856 0.066292 -0.255683
v -0.580445 0.210391 -0.335120
v -0.536775 0.108498 -0.309908
v -0.255683 0.066292 -0.442856
v -0.335120 0.210391 -0.580445
v -0.309907 0.108498 -0.536776
vn -0.2578 -0.0888 -0.9621
vn 0.9621 -0.0888 -0.2578
vn 0.9621 -0.0888 0.2578
vn 0.7043 -0.0888 0.7043
vn 0.2578 -0.0888 0.9621
vn -0.2578 -0.0888 0.9621
vn -0.7043 -0.0888 0.7043
vn -0.9621 -0.0888 0.2578
vn -0.9621 -0.0888 -0.2578
vn -0.7043 -0.0888 -0.7043
vn -0.2578 0.0878 0.9622
vn 0.7043 -0.0888 -0.7043
vn 0.2578 -0.0888 -0.9621
vn -0.0000 1.0000 -0.0000
vn -0.7044 0.0878 0.7044
vn 0.9622 0.0878 -0.2578
vn -0.2578 0.0878 -0.9622
vn -0.9622 0.0878 0.2578
vn 0.2578 0.0878 0.9622
vn 0.9622 0.0878 0.2578
vn 0.2578 0.0878 -0.9622
vn -0.9622 0.0878 -0.2578
vn 0.7044 0.0878 0.7044
vn 0.7044 0.0878 -0.7044
vn -0.7044 0.0878 -0.7044
vn 0.2336 -0.4304 -0.8719
vn 0.0968 -0.9275 -0.3611
vn 0.6383 -0.4304 -0.6383
vn 0.2644 -0.9275 -0.2644
vn 0.8719 -0.4304 -0.2336
vn 0.3611 -0.9275 -0.0968
vn 0.8719 -0.4304 0.2336
vn 0.3611 -0.9275 0.0968
vn 0.6383 -0.4304 0.6383
vn 0.2644 -0.9275 0.2644
vn 0.2336 -0.4304 0.8719
vn 0.0968 -0.9275 0.3611
vn -0.2336 -0.4304 0.8719
vn -0.0968 -0.9275 0.3611
vn -0.6383 -0.4304 0.6383
vn -0.2644 -0.9275 0.2644
vn -0.8719 -0.4304 0.2336
vn -0.3611 -0.9275 0.0968
vn -0.8719 -0.4304 -0.2336
vn -0.3611 -0.9275 -0.0968
vn -0.6383 -0.4304 -0.6383
vn -0.2644 -0.9275 -0.2644
vn -0.2336 -0.4304 -0.8719
vn -0.0968 -0.9275 -0.3611
vn -0.2335 0.4313 0.8715
vn -0.0967 0.9275 0.3610
vn -0.6380 0.4313 0.6380
vn -0.2643 0.9275 0.2643
vn -0.8715 0.4313 0.2335
vn -0.3610 0.9275 0.0967
vn -0.8715 0.4313 -0.2335
vn -0.3610 0.9275 -0.0967
vn -0.6380 0.4313 -0.6380
vn -0.2643 0.9275 -0.2643
vn -0.2335 0.4313 -0.8715
vn -0.0967 0.9275 -0.3610
vn 0.2335 0.4313 -0.8715
vn 0.0967 0.9275 -0.3610
vn 0.6380 0.4313 -0.6380
vn 0.2643 0.9275 -0.2643
vn 0.8715 0.4313 -0.2335
vn 0.3610 0.9275 -0.0967
vn 0.8715 0.4313 0.2335
vn 0.3610 0.9275 0.0967
vn 0.6380 0.4313 0.6380
vn 0.2643 0.9275 0.2643
vn 0.2335 0.4313 0.8715
vn 0.0967 0.9275 0.3610
vn -0.0000 -1.0000 -0.0000
vt 0.461703 0.617594
vt 0.016584 0.617594
vt 0.016584 0.557493
vt 0.461703 0.557493
vt 0.461703 0.437291
vt 0.016584 0.437291
vt 0.016584 0.377190
vt 0.461703 0.377190
vt 0.016584 0.317089
vt 0.461703 0.317089
vt 0.016584 0.256988
vt 0.461703 0.256988
vt 0.016584 0.196887
vt 0.461703 0.196887
vt 0.016584 0.136786
vt 0.461703 0.136786
vt 0.016584 0.076685
vt 0.461703 0.076685
vt 0.016584 0.016584
vt 0.461703 0.016584
vt 0.461703 0.737796
vt 0.016584 0.737796
vt 0.016584 0.677695
vt 0.461703 0.677695
vt 0.522684 0.229235
vt 0.522684 0.176072
vt 0.955826 0.176072
vt 0.955826 0.229235
vt 0.461703 0.497392
vt 0.016584 0.497392
vt 0.622822 0.939486
vt 0.686914 0.939486
vt 0.690287 0.952074
vt 0.619450 0.952074
vt 0.742419 0.907441
vt 0.751633 0.916655
vt 0.774465 0.851936
vt 0.787052 0.855309
vt 0.774465 0.787844
vt 0.787052 0.784471
vt 0.742419 0.732339
vt 0.751634 0.723125
vt 0.686914 0.700293
vt 0.690287 0.687706
vt 0.622823 0.700293
vt 0.619450 0.687706
vt 0.567317 0.732339
vt 0.558103 0.723124
vt 0.535272 0.787844
vt 0.522684 0.784471
vt 0.535272 0.787844
vt 0.535272 0.851936
vt 0.522684 0.855309
vt 0.522684 0.784471
vt 0.567317 0.907441
vt 0.558103 0.916655
vt 0.522684 0.282398
vt 0.955826 0.282398
vt 0.317612 0.815803
vt 0.317612 0.848627
vt 0.301200 0.877053
vt 0.272774 0.893465
vt 0.239950 0.893465
vt 0.211523 0.877053
vt 0.195111 0.848627
vt 0.195111 0.815803
vt 0.211523 0.787376
vt 0.239950 0.770964
vt 0.272774 0.770965
vt 0.301200 0.787376
vt 0.522684 0.654538
vt 0.522684 0.601375
vt 0.955826 0.601375
vt 0.955826 0.654538
vt 0.522684 0.495049
vt 0.522684 0.441887
vt 0.955826 0.441887
vt 0.955826 0.495049
vt 0.522684 0.335561
vt 0.955826 0.335561
vt 0.522684 0.122910
vt 0.955826 0.122910
vt 0.522684 0.069747
vt 0.522684 0.016584
vt 0.955826 0.016584
vt 0.955826 0.069747
vt 0.522684 0.548212
vt 0.955826 0.548212
vt 0.522684 0.388724
vt 0.955826 0.388724
vt 0.475447 0.497392
vt 0.475447 0.557493
vt 0.489516 0.497392
vt 0.489516 0.557493
vt 0.475447 0.437291
vt 0.489516 0.437291
vt 0.475447 0.377190
vt 0.489516 0.377190
vt 0.475447 0.317089
vt 0.489516 0.317089
vt 0.475447 0.256988
vt 0.489516 0.256988
vt 0.475447 0.196887
vt 0.489516 0.196887
vt 0.475447 0.136786
vt 0.489516 0.136786
vt 0.475447 0.076685
vt 0.489516 0.076685
vt 0.475447 0.016584
vt 0.489516 0.016584
vt 0.475447 0.677695
vt 0.475447 0.737796
vt 0.489516 0.677695
vt 0.489516 0.737796
vt 0.475447 0.617594
vt 0.489516 0.617594
vt 0.969460 0.176072
vt 0.969460 0.229235
vt 0.983416 0.176072
vt 0.983416 0.229235
vt 0.969460 0.282398
vt 0.983416 0.282398
vt 0.969460 0.335561
vt 0.983416 0.335561
vt 0.969460 0.388724
vt 0.983416 0.388724
vt 0.969460 0.441887
vt 0.983416 0.441886
vt 0.969460 0.495049
vt 0.983416 0.495049
vt 0.969460 0.548212
vt 0.983416 0.548212
vt 0.969460 0.601375
vt 0.983416 0.601375
vt 0.969460 0.654538
vt 0.983416 0.654537
vt 0.969460 0.016584
vt 0.969460 0.069747
vt 0.983416 0.016584
vt 0.983416 0.069747
vt 0.969460 0.122910
vt 0.983416 0.122910
vt 0.016584 0.863119
vt 0.016584 0.824170
vt 0.036058 0.790439
vt 0.069789 0.770965
vt 0.108738 0.770964
vt 0.142469 0.790439
vt 0.161943 0.824170
vt 0.161943 0.863118
vt 0.142469 0.896849
vt 0.108738 0.916324
vt 0.069789 0.916324
vt 0.036059 0.896849
s 0
f 59/1/1 24/2/1 14/3/1 26/4/1
f 32/5/2 15/6/2 16/7/2 35/8/2
f 35/8/3 16/7/3 17/9/3 38/10/3
f 38/10/4 17/9/4 18/11/4 41/12/4
f 41/12/5 18/11/5 19/13/5 44/14/5
f 44/14/6 19/13/6 20/15/6 47/16/6
f 47/16/7 20/15/7 21/17/7 50/18/7
f 50/18/8 21/17/8 22/19/8 53/20/8
f 53/21/9 22/22/9 23/23/9 56/24/9
f 56/24/10 23/23/10 24/2/10 59/1/10
f 2/25/11 1/26/11 64/27/11 62/28/11
f 29/29/12 13/30/12 15/6/12 32/5/12
f 26/4/13 14/3/13 13/30/13 29/29/13
f 1/31/14 2/32/14 13/33/14 14/34/14
f 2/32/14 3/35/14 15/36/14 13/33/14
f 3/35/14 4/37/14 16/38/14 15/36/14
f 4/37/14 5/39/14 17/40/14 16/38/14
f 5/39/14 6/41/14 18/42/14 17/40/14
f 6/41/14 7/43/14 19/44/14 18/42/14
f 7/43/14 8/45/14 20/46/14 19/44/14
f 8/45/14 9/47/14 21/48/14 20/46/14
f 9/47/14 10/49/14 22/50/14 21/48/14
f 10/51/14 11/52/14 23/53/14 22/54/14
f 11/52/14 12/55/14 24/56/14 23/53/14
f 12/55/14 1/31/14 14/34/14 24/56/14
f 3/57/15 2/25/15 62/28/15 68/58/15
f 61/59/14 65/60/14 94/61/14 91/62/14 88/63/14 85/64/14 82/65/14 79/66/14 76/67/14 73/68/14 70/69/14 67/70/14
f 10/71/16 9/72/16 86/73/16 89/74/16
f 7/75/17 6/76/17 77/77/17 80/78/17
f 4/79/18 3/57/18 68/58/18 71/80/18
f 1/26/19 12/81/19 95/82/19 64/27/19
f 11/83/20 10/84/20 89/85/20 92/86/20
f 8/87/21 7/75/21 80/78/21 83/88/21
f 5/89/22 4/79/22 71/80/22 74/90/22
f 12/81/23 11/83/23 92/86/23 95/82/23
f 9/72/24 8/87/24 83/88/24 86/73/24
f 6/76/25 5/89/25 74/90/25 77/77/25
f 26/4/26 29/29/26 30/91/26 27/92/26
f 27/92/27 30/91/27 28/93/27 25/94/27
f 29/29/28 32/5/28 33/95/28 30/91/28
f 30/91/29 33/95/29 31/96/29 28/93/29
f 32/5/30 35/8/30 36/97/30 33/95/30
f 33/95/31 36/97/31 34/98/31 31/96/31
f 35/8/32 38/10/32 39/99/32 36/97/32
f 36/97/33 39/99/33 37/100/33 34/98/33
f 38/10/34 41/12/34 42/101/34 39/99/34
f 39/99/35 42/101/35 40/102/35 37/100/35
f 41/12/36 44/14/36 45/103/36 42/101/36
f 42/101/37 45/103/37 43/104/37 40/102/37
f 44/14/38 47/16/38 48/105/38 45/103/38
f 45/103/39 48/105/39 46/106/39 43/104/39
f 47/16/40 50/18/40 51/107/40 48/105/40
f 48/105/41 51/107/41 49/108/41 46/106/41
f 50/18/42 53/20/42 54/109/42 51/107/42
f 51/107/43 54/109/43 52/110/43 49/108/43
f 53/21/44 56/24/44 57/111/44 54/112/44
f 54/112/45 57/111/45 55/113/45 52/114/45
f 56/24/46 59/1/46 60/115/46 57/111/46
f 57/111/47 60/115/47 58/116/47 55/113/47
f 59/1/48 26/4/48 27/92/48 60/115/48
f 60/115/49 27/92/49 25/94/49 58/116/49
f 62/28/50 64/27/50 66/117/50 63/118/50
f 63/118/51 66/117/51 65/119/51 61/120/51
f 68/58/52 62/28/52 63/118/52 69/121/52
f 69/121/53 63/118/53 61/120/53 67/122/53
f 71/80/54 68/58/54 69/121/54 72/123/54
f 72/123/55 69/121/55 67/122/55 70/124/55
f 74/90/56 71/80/56 72/123/56 75/125/56
f 75/125/57 72/123/57 70/124/57 73/126/57
f 77/77/58 74/90/58 75/125/58 78/127/58
f 78/127/59 75/125/59 73/126/59 76/128/59
f 80/78/60 77/77/60 78/127/60 81/129/60
f 81/129/61 78/127/61 76/128/61 79/130/61
f 83/88/62 80/78/62 81/129/62 84/131/62
f 84/131/63 81/129/63 79/130/63 82/132/63
f 86/73/64 83/88/64 84/131/64 87/133/64
f 87/133/65 84/131/65 82/132/65 85/134/65
f 89/74/66 86/73/66 87/133/66 90/135/66
f 90/135/67 87/133/67 85/134/67 88/136/67
f 92/86/68 89/85/68 90/137/68 93/138/68
f 93/138/69 90/137/69 88/139/69 91/140/69
f 95/82/70 92/86/70 93/138/70 96/141/70
f 96/141/71 93/138/71 91/140/71 94/142/71
f 64/27/72 95/82/72 96/141/72 66/117/72
f 66/117/73 96/141/73 94/142/73 65/119/73
f 25/143/74 28/144/74 31/145/74 34/146/74 37/147/74 40/148/74 43/149/74 46/150/74 49/151/74 52/152/74 55/153/74 58/154/74
