# Blender 4.1.0
# www.blender.org
mtllib Plate.mtl
o Plane
v -1.838613 0.132196 1.838613
v 1.838613 0.132196 1.838613
v -1.838613 0.132196 -1.838613
v 1.838613 0.132196 -1.838613
v -2.508495 0.132196 0.000000
v 0.000000 0.132196 2.508495
v 2.508495 0.132196 0.000000
v 0.000000 0.132196 -2.508495
v 0.000000 -0.000242 -0.000000
v -1.112784 -0.000242 -1.112784
v -1.518217 -0.000242 0.000000
v -1.112784 -0.000242 1.112784
v 0.000000 -0.000242 1.518217
v 1.112784 -0.000242 1.112784
v 1.518217 -0.000242 0.000000
v 1.112784 -0.000242 -1.112784
v 0.000000 -0.000242 -1.518217
v -1.112784 0.058331 -1.112784
v -1.518217 0.058331 0.000000
v -1.112784 0.058331 1.112784
v 0.000000 0.058331 1.518217
v 1.112784 0.058331 1.112784
v 1.518217 0.058331 0.000000
v 1.112784 0.058331 -1.112784
v 0.000000 0.058331 -1.518217
v 0.000000 0.058331 -0.000000
v -1.838613 0.190769 -1.838613
v -2.508495 0.190769 0.000000
v -1.838613 0.190769 1.838613
v 0.000000 0.190769 2.508495
v 1.838613 0.190769 1.838613
v 2.508495 0.190769 0.000000
v 1.838613 0.190769 -1.838613
v 0.000000 0.190769 -2.508495
vn -0.0000 -1.0000 -0.0000
vn -0.1324 -0.9900 -0.0482
vn -0.1324 -0.9900 0.0482
vn -0.0482 -0.9900 0.1324
vn 0.0482 -0.9900 0.1324
vn 0.1324 -0.9900 0.0482
vn 0.1324 -0.9900 -0.0482
vn 0.0482 -0.9900 -0.1324
vn -0.0482 -0.9900 -0.1324
vn -0.0000 1.0000 -0.0000
vn 0.1324 0.9900 0.0482
vn 0.1324 0.9900 -0.0482
vn 0.0482 0.9900 -0.1324
vn -0.0482 0.9900 -0.1324
vn -0.1324 0.9900 -0.0482
vn -0.1324 0.9900 0.0482
vn -0.0482 0.9900 0.1324
vn 0.0482 0.9900 0.1324
vn 0.3423 -0.0000 -0.9396
vn 0.9396 -0.0000 0.3423
vn -0.3423 -0.0000 0.9396
vn -0.9396 -0.0000 -0.3423
vn -0.3423 -0.0000 -0.9396
vn 0.9396 -0.0000 -0.3423
vn 0.3423 -0.0000 0.9396
vn -0.9396 -0.0000 0.3423
vt 0.262281 0.113784
vt 0.262200 0.188340
vt 0.172445 0.155621
vt 0.205164 0.065866
vt 0.082690 0.122902
vt 0.130609 0.065785
vt 0.139726 0.245376
vt 0.082609 0.197457
vt 0.214282 0.245457
vt 0.321500 0.209957
vt 0.241860 0.304676
vt 0.321500 0.086206
vt 0.226781 0.006566
vt 0.103030 0.006566
vt 0.023390 0.101285
vt 0.023390 0.225036
vt 0.118109 0.304676
vt 0.214282 0.377027
vt 0.262200 0.434144
vt 0.172445 0.466863
vt 0.139726 0.377108
vt 0.262281 0.508699
vt 0.205164 0.556617
vt 0.130609 0.556698
vt 0.082690 0.499581
vt 0.082609 0.425026
vt 0.023390 0.397448
vt 0.118109 0.317808
vt 0.241860 0.317808
vt 0.321500 0.412527
vt 0.321500 0.536277
vt 0.226781 0.615918
vt 0.103030 0.615918
vt 0.023390 0.521199
vt 0.010258 0.623359
vt 0.010258 0.746717
vt 0.006566 0.746717
vt 0.006566 0.623359
vt 0.010258 0.376642
vt 0.010258 0.500000
vt 0.006566 0.500000
vt 0.006566 0.376642
vt 0.010258 0.129924
vt 0.010258 0.253283
vt 0.006566 0.253283
vt 0.006566 0.129924
vt 0.010258 0.870076
vt 0.010258 0.993434
vt 0.006566 0.993434
vt 0.006566 0.870076
vt 0.010258 0.006566
vt 0.006566 0.006566
s 0
f 12/1/1 11/2/1 9/3/1 13/4/1
f 13/4/1 9/3/1 15/5/1 14/6/1
f 9/3/1 17/7/1 16/8/1 15/5/1
f 11/2/1 10/9/1 17/7/1 9/3/1
f 11/2/2 5/10/2 3/11/2 10/9/2
f 12/1/3 1/12/3 5/10/3 11/2/3
f 13/4/4 6/13/4 1/12/4 12/1/4
f 14/6/5 2/14/5 6/13/5 13/4/5
f 15/5/6 7/15/6 2/14/6 14/6/6
f 16/8/7 4/16/7 7/15/7 15/5/7
f 17/7/8 8/17/8 4/16/8 16/8/8
f 10/9/9 3/11/9 8/17/9 17/7/9
f 20/18/10 21/19/10 26/20/10 19/21/10
f 21/19/10 22/22/10 23/23/10 26/20/10
f 26/20/10 23/23/10 24/24/10 25/25/10
f 19/21/10 26/20/10 25/25/10 18/26/10
f 19/21/11 18/26/11 27/27/11 28/28/11
f 20/18/12 19/21/12 28/28/12 29/29/12
f 21/19/13 20/18/13 29/29/13 30/30/13
f 22/22/14 21/19/14 30/30/14 31/31/14
f 23/23/15 22/22/15 31/31/15 32/32/15
f 24/24/16 23/23/16 32/32/16 33/33/16
f 25/25/17 24/24/17 33/33/17 34/34/17
f 18/26/18 25/25/18 34/34/18 27/27/18
f 4/35/19 8/36/19 34/37/19 33/38/19
f 2/39/20 7/40/20 32/41/20 31/42/20
f 1/43/21 6/44/21 30/45/21 29/46/21
f 3/47/22 5/48/22 28/49/22 27/50/22
f 8/36/23 3/47/23 27/50/23 34/37/23
f 7/40/24 4/35/24 33/38/24 32/41/24
f 6/44/25 2/39/25 31/42/25 30/45/25
f 5/51/26 1/43/26 29/46/26 28/52/26
