# Blender 4.1.0
# www.blender.org
mtllib TreatsBox2.mtl
o Cube.002
v -1.154894 3.241201 1.251178
v -1.251178 3.241201 1.154894
v -1.251178 3.241201 -1.154894
v -1.154894 3.241201 -1.251178
v 1.154894 3.241201 -1.251178
v 1.251178 3.241201 -1.154894
v 1.251178 3.241201 1.154894
v 1.154894 3.241201 1.251178
v -1.357699 3.364097 1.454960
v -1.454960 3.364097 1.357699
v -1.454960 3.364097 -1.357699
v -1.357699 3.364097 -1.454960
v 1.357699 3.364097 -1.454960
v 1.454960 3.364097 -1.357699
v 1.454960 3.364097 1.357699
v 1.357699 3.364097 1.454960
v -1.307301 3.571472 1.405111
v -1.405111 3.571472 1.307301
v -1.405111 3.571472 -1.307301
v -1.307301 3.571472 -1.405111
v 1.307301 3.571472 -1.405111
v 1.405111 3.571472 -1.307301
v 1.405111 3.571472 1.307301
v 1.307301 3.571472 1.405111
v -0.796478 3.762457 0.697848
v -0.697848 3.762457 0.796478
v -0.697848 3.762457 -0.796478
v -0.796478 3.762457 -0.697848
v 0.796478 3.762457 -0.697848
v 0.697848 3.762457 -0.796478
v 0.697848 3.762457 0.796478
v 0.796478 3.762457 0.697848
v -0.728492 0.006722 0.824844
v -0.824844 0.006722 0.728492
v -0.919410 0.181206 1.015334
v -1.015334 0.181206 0.919410
v -0.824844 0.006722 -0.728492
v -0.728492 0.006722 -0.824844
v -1.015334 0.181206 -0.919410
v -0.919410 0.181206 -1.015334
v 0.824844 0.006722 0.728492
v 0.728492 0.006722 0.824844
v 1.015334 0.181206 0.919410
v 0.919410 0.181206 1.015334
v 0.728492 0.006722 -0.824844
v 0.824844 0.006722 -0.728492
v 0.919410 0.181206 -1.015334
v 1.015334 0.181206 -0.919410
v -1.601698 5.103976 0.697848
v -1.540384 5.026720 0.796478
v -1.540384 5.026720 -0.796478
v -1.601697 5.103976 -0.697848
v -0.579245 3.762457 0.796478
v -0.747645 3.875481 0.697848
v -0.747645 3.875481 -0.697848
v -0.579245 3.762457 -0.796478
v -1.516072 5.155703 0.697848
v -1.454759 5.078447 0.796478
v -1.454759 5.078447 -0.796478
v -1.516072 5.155703 -0.697848
v -0.467565 3.384650 0.409665
v -0.409665 3.384650 0.467565
v -0.409665 3.384650 -0.467565
v -0.467565 3.384650 -0.409665
v 0.467565 3.384650 -0.409665
v 0.409665 3.384650 -0.467565
v 0.409665 3.384650 0.467565
v 0.467565 3.384650 0.409665
vn -0.0000 -0.0768 0.9970
vn -0.5164 -0.8563 -0.0000
vn -0.0000 -0.0768 -0.9970
vn 0.9970 -0.0768 -0.0000
vn -0.9723 0.2337 -0.0000
vn -0.2994 0.9541 -0.0000
vn -0.0000 -0.8563 0.5164
vn -0.0000 -0.8563 -0.5164
vn 0.5164 -0.8563 -0.0000
vn -0.0000 0.9541 -0.2994
vn -0.0000 0.2337 0.9723
vn -0.0000 0.2337 -0.9723
vn 0.9723 0.2337 -0.0000
vn -0.0000 -1.0000 -0.0000
vn 0.2994 0.9541 -0.0000
vn -0.0000 0.9541 0.2994
vn -0.0000 -0.7374 0.6754
vn 0.6754 -0.7374 -0.0000
vn -0.0000 -0.7374 -0.6754
vn -0.6754 -0.7374 -0.0000
vn -0.7029 -0.1083 0.7029
vn -0.7029 -0.1083 -0.7029
vn 0.7029 -0.1083 -0.7029
vn -0.9970 -0.0768 -0.0000
vn 0.2779 -0.9195 -0.2779
vn 0.2779 -0.9195 0.2779
vn -0.2779 -0.9195 0.2779
vn -0.2779 -0.9195 -0.2779
vn 0.6691 0.3234 -0.6691
vn 0.6691 0.3234 0.6691
vn -0.6691 0.3234 0.6691
vn -0.6691 0.3234 -0.6691
vn 0.1531 0.9763 0.1531
vn -0.1531 0.9763 0.1531
vn -0.1531 0.9763 -0.1531
vn 0.1531 0.9763 -0.1531
vn -0.3841 -0.8396 -0.3841
vn -0.3841 -0.8396 0.3841
vn 0.3841 -0.8396 -0.3841
vn 0.3841 -0.8396 0.3841
vn 0.7029 -0.1083 0.7029
vn -0.0000 -0.0000 -1.0000
vn 0.8574 0.5146 -0.0000
vn -0.0000 -0.0000 1.0000
vn 0.7653 0.4846 -0.4237
vn -0.3671 0.6077 0.7042
vn -0.5171 0.8559 -0.0000
vn -0.7632 -0.4826 0.4298
vn -0.3671 0.6077 -0.7042
vn 0.7653 0.4846 0.4237
vn -0.7632 -0.4826 -0.4298
vn -0.8574 -0.5146 -0.0000
vn 0.3525 -0.5223 0.7765
vn 0.9180 -0.3966 -0.0000
vn 0.3525 -0.5223 -0.7765
vn 0.4629 0.7560 -0.4628
vn -0.4629 0.7560 -0.4628
vn -0.0000 0.6566 0.7542
vn 0.7542 0.6566 -0.0000
vn -0.7542 0.6566 -0.0000
vn -0.0000 0.6566 -0.7542
vn -0.4629 0.7560 0.4628
vn 0.4629 0.7560 0.4628
vn -0.0000 1.0000 -0.0000
vt 0.390262 0.761809
vt 0.625000 0.759619
vt 0.625000 0.990381
vt 0.390262 0.988191
vt 0.625000 0.240381
vt 0.625000 0.009619
vt 0.625000 0.008356
vt 0.625000 0.241644
vt 0.390262 0.261809
vt 0.625000 0.259619
vt 0.625000 0.490381
vt 0.390262 0.488191
vt 0.390262 0.511809
vt 0.625000 0.509619
vt 0.625000 0.740381
vt 0.390262 0.738191
vt 0.625000 0.008356
vt 0.625000 0.008701
vt 0.625000 0.241299
vt 0.625000 0.241299
vt 0.625000 0.008701
vt 0.625000 0.015479
vt 0.625000 0.234521
vt 0.625000 0.758356
vt 0.625000 0.991644
vt 0.625000 0.258356
vt 0.625000 0.491644
vt 0.625000 0.508356
vt 0.625000 0.741644
vt 0.625000 0.491299
vt 0.625000 0.258701
vt 0.625000 0.294145
vt 0.625000 0.484521
vt 0.625000 0.758701
vt 0.625000 0.991299
vt 0.625000 0.508356
vt 0.625000 0.508701
vt 0.625000 0.741299
vt 0.146894 0.533938
vt 0.158938 0.521894
vt 0.341062 0.521894
vt 0.353106 0.533939
vt 0.353106 0.716062
vt 0.341062 0.728106
vt 0.158938 0.728106
vt 0.146894 0.716061
vt 0.625000 0.515479
vt 0.625000 0.734521
vt 0.625000 0.765479
vt 0.625000 0.963813
vt 0.341062 0.728106
vt 0.363191 0.750000
vt 0.136809 0.750000
vt 0.353106 0.716061
vt 0.353106 0.533938
vt 0.390262 0.511809
vt 0.390262 0.738191
vt 0.341062 0.521894
vt 0.136809 0.500000
vt 0.363191 0.500000
vt 0.146894 0.533939
vt 0.146894 0.716062
vt 0.125000 0.738191
vt 0.125000 0.511809
vt 0.390262 0.000000
vt 0.625000 0.000000
vt 0.625000 0.009619
vt 0.390262 0.011809
vt 0.390262 0.238191
vt 0.625000 0.000000
vt 0.625000 0.265479
vt 0.371117 0.503883
vt 0.353106 0.521894
vt 0.353106 0.728106
vt 0.371117 0.746117
vt 0.000000 0.000000
vt 0.863577 0.734521
vt 0.863577 0.515479
vt 0.640479 0.750000
vt 0.859521 0.750000
vt 0.859521 0.500000
vt 0.640479 0.500000
vt 0.625000 0.984521
s 0
f 44/1/1 8/2/1 1/3/1 35/4/1
f 3/5/2 2/6/2 10/7/2 11/8/2
f 40/9/3 4/10/3 5/11/3 47/12/3
f 48/13/4 6/14/4 7/15/4 43/16/4
f 11/8/5 10/17/5 18/18/5 19/19/5
f 19/20/6 18/21/6 25/22/6 28/23/6
f 1/3/7 8/2/7 16/24/7 9/25/7
f 5/11/8 4/10/8 12/26/8 13/27/8
f 7/15/9 6/14/9 14/28/9 15/29/9
f 21/30/10 20/31/10 56/32/10 30/33/10
f 9/25/11 16/24/11 24/34/11 17/35/11
f 13/27/12 12/26/12 20/31/12 21/30/12
f 15/29/13 14/36/13 22/37/13 23/38/13
f 37/39/14 38/40/14 45/41/14 46/42/14 41/43/14 42/44/14 33/45/14 34/46/14
f 23/38/15 22/37/15 29/47/15 32/48/15
f 17/35/16 24/34/16 31/49/16 53/50/16
f 33/45/17 42/51/17 44/52/17 35/53/17
f 41/54/18 46/55/18 48/56/18 43/57/18
f 45/58/19 38/40/19 40/59/19 47/60/19
f 37/61/20 34/62/20 36/63/20 39/64/20
f 35/65/21 1/66/21 2/67/21 36/68/21
f 4/10/22 40/9/22 39/69/22 3/5/22
f 6/14/23 48/13/23 47/12/23 5/11/23
f 2/67/24 3/5/24 39/69/24 36/68/24
f 5/11/25 13/27/25 14/28/25 6/14/25
f 16/24/26 8/2/26 7/15/26 15/29/26
f 1/66/27 9/66/27 10/7/27 2/6/27
f 12/26/28 4/10/28 3/5/28 11/8/28
f 13/27/29 21/30/29 22/37/29 14/36/29
f 24/34/30 16/24/30 15/29/30 23/38/30
f 9/66/31 17/66/31 18/18/31 10/17/31
f 20/31/32 12/26/32 11/8/32 19/19/32
f 23/38/33 32/48/33 31/49/33 24/34/33
f 25/22/34 18/21/34 17/70/34 26/66/34
f 19/20/35 28/23/35 27/71/35 20/31/35
f 29/47/36 22/37/36 21/30/36 30/33/36
f 40/59/37 38/40/37 37/61/37 39/64/37
f 33/45/38 35/53/38 36/63/38 34/62/38
f 48/72/39 46/73/39 45/58/39 47/60/39
f 44/52/40 42/51/40 41/74/40 43/75/40
f 43/16/41 7/15/41 8/2/41 44/1/41
f 51/76/42 59/76/42 56/76/42 27/76/42
f 60/47/43 57/48/43 54/77/43 55/78/43
f 26/76/44 53/76/44 58/76/44 50/76/44
f 57/48/45 58/79/45 53/80/45 54/77/45
f 50/76/46 58/76/46 57/76/46 49/76/46
f 49/76/47 57/76/47 60/76/47 52/76/47
f 26/76/48 50/76/48 49/76/48 25/22/48
f 52/76/49 60/76/49 59/76/49 51/76/49
f 55/78/50 56/81/50 59/82/50 60/47/50
f 28/23/51 52/76/51 51/76/51 27/76/51
f 25/22/52 49/76/52 52/76/52 28/23/52
f 56/76/53 55/78/53 28/23/53 27/76/53
f 28/23/54 55/78/54 54/77/54 25/22/54
f 25/22/55 54/77/55 53/76/55 26/66/55
f 26/66/56 62/66/56 61/22/56 25/22/56
f 31/49/57 32/48/57 68/48/57 67/49/57
f 30/33/58 56/32/58 63/71/58 66/33/58
f 25/22/59 61/22/59 64/23/59 28/23/59
f 32/48/60 29/47/60 65/47/60 68/48/60
f 26/83/61 53/50/61 62/83/61
f 29/47/62 30/33/62 66/33/62 65/47/62
f 28/23/63 64/23/63 63/71/63 27/71/63
f 68/48/64 65/47/64 66/33/64 63/71/64 64/23/64 61/22/64 62/66/64 67/49/64
f 56/32/10 20/31/10 27/71/10
f 63/71/58 56/32/58 27/71/58
f 62/83/61 53/50/61 31/49/61 67/49/61
f 53/50/16 26/83/16 17/35/16
