# Blender 4.1.1
# www.blender.org
mtllib ShushiBelt1.mtl
o SushiBelt_HP1
v 0.313726 -0.250305 0.689165
v 0.100488 -0.250305 0.372973
v 0.025609 -0.250305 0.000000
v 0.100488 -0.250305 -0.372974
v 0.313726 -0.250305 -0.689165
v 0.568024 -0.250305 0.895123
v 0.330567 -0.250305 0.994685
v 0.595196 -0.250305 0.966055
v 0.330566 -0.250305 -0.994685
v 0.568024 -0.250305 -0.895123
v 0.595196 -0.250305 -0.966055
v 0.320084 0.247862 0.893663
v 0.566630 0.131052 0.894961
v 0.557693 0.232187 0.893925
v 0.312316 0.131052 0.689165
v 0.046215 0.247862 0.689165
v 0.303277 0.232187 0.689165
v 0.099087 0.131052 0.372973
v -0.167038 0.247862 0.372973
v 0.090096 0.232187 0.372973
v 0.024213 0.131052 0.000000
v -0.241887 0.247862 0.000000
v 0.015253 0.232187 -0.000000
v 0.099087 0.131052 -0.372973
v -0.167038 0.247862 -0.372973
v 0.090096 0.232187 -0.372973
v 0.312316 0.131052 -0.689165
v 0.046215 0.247862 -0.689165
v 0.303277 0.232187 -0.689165
v 0.242463 0.246640 0.970511
v 0.329534 0.131052 0.993507
v 0.322909 0.232187 0.985948
v 0.483754 0.246640 0.951886
v 0.594051 0.131052 0.965205
v 0.586702 0.232187 0.959756
v 0.320084 0.247862 -0.893663
v 0.566630 0.131052 -0.894961
v 0.557693 0.232187 -0.893925
v 0.242463 0.246640 -0.970511
v 0.329534 0.131053 -0.993507
v 0.322909 0.232187 -0.985948
v 0.483754 0.246640 -0.951886
v 0.594051 0.131052 -0.965205
v 0.586702 0.232187 -0.959756
v -0.407092 -0.250305 0.987313
v -0.881092 -0.250305 0.900438
v -1.200224 -0.250305 0.689165
v -1.413461 -0.250305 0.372973
v -1.488340 -0.250305 0.000000
v -1.413461 -0.250305 -0.372974
v -1.200224 -0.250305 -0.689165
v -0.881092 -0.250305 -0.900438
v -0.407092 -0.250305 -0.987313
v -0.426693 0.232187 0.979773
v -0.346016 0.246640 0.965863
v -0.623014 0.247862 0.896736
v -0.876268 0.232187 0.898929
v -0.409736 0.131053 0.986296
v -0.880441 0.131052 0.900234
v -0.929230 0.247862 0.689165
v -1.188346 0.232187 0.689165
v -1.198622 0.131052 0.689165
v -1.142990 0.247862 0.372973
v -1.401861 0.232187 0.372973
v -1.411896 0.131053 0.372973
v -1.218027 0.247862 0.000000
v -1.476828 0.232187 -0.000000
v -1.486787 0.131052 0.000000
v -1.142990 0.247862 -0.372973
v -1.401861 0.232187 -0.372973
v -1.411896 0.131053 -0.372973
v -0.929230 0.247862 -0.689165
v -1.188346 0.232187 -0.689165
v -1.198622 0.131053 -0.689165
v -0.426693 0.232187 -0.979773
v -0.409736 0.131052 -0.986296
v -0.880441 0.131052 -0.900234
v -0.876268 0.232187 -0.898929
v -0.346016 0.246640 -0.965863
v -0.623014 0.247862 -0.896736
v 0.191444 -0.250305 0.541439
v 0.044573 -0.250305 0.190128
v 0.044573 -0.250305 -0.190128
v 0.191444 -0.250305 -0.541439
v 0.611660 -0.250305 0.942144
v 0.523433 -0.250305 0.983135
v 0.523433 -0.250305 -0.983135
v 0.611660 -0.250305 -0.942144
v 0.454722 -0.250305 0.809656
v 0.454722 -0.250305 -0.809656
v 0.563423 0.208863 0.894590
v 0.453315 0.131053 0.809636
v 0.309073 0.208863 0.689165
v 0.444295 0.232187 0.809506
v 0.521901 0.242237 0.893186
v 0.264984 0.242237 0.689165
v 0.189745 0.247862 0.809473
v 0.190037 0.131052 0.541439
v 0.095861 0.208863 0.372973
v 0.181016 0.232187 0.541439
v 0.051827 0.242237 0.372973
v -0.076101 0.247862 0.541439
v 0.043175 0.131052 0.190128
v 0.020998 0.208863 0.000000
v 0.034207 0.232187 0.190128
v -0.022995 0.242237 0.000000
v -0.222932 0.247862 0.190128
v 0.043175 0.131052 -0.190128
v 0.095861 0.208863 -0.372973
v 0.034207 0.232187 -0.190128
v 0.051827 0.242237 -0.372973
v -0.222932 0.247862 -0.190128
v 0.190037 0.131052 -0.541439
v 0.309073 0.208863 -0.689165
v 0.181016 0.232187 -0.541439
v 0.264984 0.242237 -0.689165
v -0.076101 0.247862 -0.541439
v -0.023708 -0.250305 -0.997750
v -0.023708 -0.250305 0.997750
v 0.565706 0.242078 0.955076
v 0.369476 0.247443 0.960602
v 0.304942 0.242078 0.978704
v 0.517345 0.232187 0.975167
v 0.591414 0.208863 0.963250
v 0.327156 0.208863 0.990794
v 0.522612 0.131052 0.982060
v 0.304942 0.242078 -0.978704
v 0.369476 0.247443 -0.960602
v 0.565706 0.242078 -0.955076
v 0.517344 0.232187 -0.975167
v 0.327156 0.208863 -0.990794
v 0.591414 0.208863 -0.963250
v 0.522612 0.131052 -0.982060
v 0.414534 0.247652 -0.936886
v 0.521901 0.242237 -0.893186
v 0.601692 0.232187 -0.938512
v 0.563423 0.208863 -0.894590
v 0.610316 0.131052 -0.941654
v -0.035836 0.247443 0.969060
v -0.035836 0.247443 -0.969060
v -0.039563 0.232187 -0.988929
v -0.025846 0.131053 -0.996560
v 0.453315 0.131052 -0.809636
v 0.444295 0.232187 -0.809506
v 0.189744 0.247862 -0.809473
v 0.414534 0.247652 0.936886
v 0.601692 0.232187 0.938512
v 0.610316 0.131052 0.941654
v -0.137411 0.249695 0.895765
v 0.313549 -0.033680 0.689165
v 0.567850 -0.033680 0.895103
v 0.595053 -0.033680 0.965949
v 0.100313 -0.033680 0.372973
v -0.729816 0.249695 0.000000
v 0.025435 -0.033680 0.000000
v -0.654867 0.249695 -0.372973
v 0.100313 -0.033680 -0.372973
v -0.441333 0.249695 -0.689165
v 0.313549 -0.033680 -0.689165
v 0.567850 -0.033680 -0.895103
v -0.137411 0.249695 -0.895765
v -0.441333 0.249695 0.689165
v 0.330437 -0.033680 0.994538
v -0.654867 0.249695 0.372973
v -0.025846 0.131053 0.996560
v -0.039563 0.232187 0.988929
v 0.330437 -0.033680 -0.994538
v 0.595053 -0.033680 -0.965949
v -0.684351 -0.250305 0.957424
v -1.051124 -0.250305 0.810320
v -1.322506 -0.250305 0.541439
v -1.469377 -0.250305 0.190128
v -1.469377 -0.250305 -0.190128
v -1.322506 -0.250305 -0.541439
v -1.051124 -0.250305 -0.810320
v -0.684351 -0.250305 -0.957424
v -0.423739 0.242078 0.973404
v -0.471314 0.247652 0.946013
v -0.841768 0.242237 0.897766
v -0.693665 0.232187 0.952900
v -0.415821 0.208863 0.983955
v -0.878944 0.208863 0.899766
v -0.685607 0.131052 0.956814
v -0.781428 0.247862 0.809857
v -1.148954 0.242237 0.689165
v -1.039970 0.232187 0.810132
v -1.194934 0.208863 0.689165
v -1.049619 0.131052 0.810295
v -1.051827 0.247862 0.541439
v -1.362662 0.242237 0.372973
v -1.310792 0.232187 0.541439
v -1.408295 0.208863 0.372973
v -1.320926 0.131052 0.541439
v -1.199025 0.247862 0.190128
v -1.437690 0.242237 0.000000
v -1.457843 0.232187 0.190128
v -1.483213 0.208863 0.000000
v -1.467821 0.131052 0.190128
v -1.199025 0.247862 -0.190128
v -1.362663 0.242237 -0.372973
v -1.457843 0.232187 -0.190128
v -1.408295 0.208863 -0.372973
v -1.467821 0.131053 -0.190128
v -1.051827 0.247862 -0.541439
v -1.148954 0.242237 -0.689165
v -1.310792 0.232187 -0.541439
v -1.194934 0.208863 -0.689165
v -1.320926 0.131053 -0.541439
v -0.415821 0.208863 -0.983955
v -0.685607 0.131052 -0.956814
v -0.878944 0.208863 -0.899766
v -0.693665 0.232187 -0.952900
v -0.423739 0.242078 -0.973404
v -0.841768 0.242237 -0.897766
v -0.471314 0.247652 -0.946013
v -0.781428 0.247862 -0.809858
v -1.039970 0.232187 -0.810132
v -1.049619 0.131053 -0.810295
v -0.881010 -0.033680 0.900412
v -0.407423 -0.033680 0.987186
v -1.200024 -0.033680 0.689165
v -1.413265 -0.033680 0.372973
v -1.488146 -0.033680 0.000000
v -1.413265 -0.033680 -0.372973
v -1.200024 -0.033680 -0.689165
v -0.881011 -0.033680 -0.900412
v -0.407423 -0.033680 -0.987186
v 0.611492 -0.033680 0.942083
v -0.710836 0.249695 -0.190128
v -0.563807 0.249695 -0.541439
v -0.030769 0.208863 -0.993822
v 0.454546 -0.033680 -0.809653
v -0.023975 -0.033680 0.997601
v 0.523330 -0.033680 0.983000
v -0.023975 -0.033680 -0.997601
v -0.048202 0.242158 -0.981266
v -0.293912 0.249695 -0.809736
v 0.044398 -0.033680 0.190128
v -0.030769 0.208863 0.993822
v 0.454546 -0.033680 0.809653
v 0.044398 -0.033680 -0.190128
v 0.191268 -0.033680 -0.541439
v 0.191268 -0.033680 0.541439
v -0.710836 0.249695 0.190128
v 0.611492 -0.033680 -0.942083
v 0.523330 -0.033680 -0.983000
v 0.450078 0.208863 0.809589
v 0.406329 0.242237 0.809414
v 0.186800 0.208863 0.541439
v 0.142729 0.242237 0.541439
v 0.039957 0.208863 0.190128
v -0.004047 0.242237 0.190128
v 0.039957 0.208863 -0.190128
v -0.004047 0.242237 -0.190128
v 0.186800 0.208863 -0.541439
v 0.142729 0.242237 -0.541439
v 0.035731 0.249450 0.946498
v -0.563807 0.249695 0.541439
v 0.035732 0.249450 -0.946498
v -0.293912 0.249695 0.809736
v 0.494934 0.242158 0.968669
v 0.520722 0.208863 0.979587
v 0.494934 0.242158 -0.968669
v 0.520722 0.208863 -0.979587
v 0.572105 0.242197 -0.936146
v 0.607221 0.208863 -0.940527
v 0.450078 0.208863 -0.809589
v 0.406329 0.242237 -0.809414
v 0.572105 0.242197 0.936146
v 0.607221 0.208863 0.940527
v -1.050936 -0.033680 0.810317
v -1.322308 -0.033680 0.541439
v -1.469182 -0.033680 0.190128
v -1.469182 -0.033680 -0.190128
v -1.322308 -0.033680 -0.541439
v -1.050936 -0.033680 -0.810317
v -0.684508 -0.033680 -0.957347
v -0.684508 -0.033680 0.957347
v -0.671461 0.242197 0.949315
v -0.688499 0.208863 0.955409
v -1.001076 0.242237 0.809986
v -1.046156 0.208863 0.810236
v -1.271516 0.242237 0.541439
v -1.317289 0.208863 0.541439
v -1.418690 0.242237 0.190128
v -1.464240 0.208863 0.190128
v -1.418690 0.242237 -0.190128
v -1.464240 0.208863 -0.190128
v -1.271516 0.242237 -0.541439
v -1.317289 0.208863 -0.541439
v -0.688499 0.208863 -0.955409
v -0.671461 0.242197 -0.949315
v -1.001076 0.242237 -0.809986
v -1.046156 0.208863 -0.810236
v -0.048202 0.242158 0.981266
vn 0.7126 0.0006 -0.7016
vn 0.9226 0.0007 -0.3857
vn 1.0000 0.0008 -0.0000
vn 0.9226 0.0007 0.3857
vn 0.7126 0.0006 0.7016
vn 0.6701 0.0004 -0.7422
vn 0.0342 0.0007 0.9994
vn 0.5652 0.0008 0.8249
vn 0.0342 0.0007 -0.9994
vn 0.6701 0.0004 0.7422
vn 0.5652 0.0008 -0.8249
vn 0.0152 0.9996 -0.0231
vn 0.6682 0.0135 -0.7438
vn 0.5342 0.5796 -0.6154
vn 0.7120 0.0174 -0.7019
vn 0.0141 0.9998 -0.0133
vn 0.5387 0.6491 -0.5370
vn 0.9223 0.0226 -0.3859
vn 0.0140 0.9999 -0.0056
vn 0.6552 0.7036 -0.2751
vn 0.9997 0.0244 -0.0000
vn 0.0140 0.9999 -0.0000
vn 0.6959 0.7182 -0.0000
vn 0.9223 0.0226 0.3859
vn 0.0140 0.9999 0.0056
vn 0.6552 0.7036 0.2751
vn 0.7120 0.0174 0.7019
vn 0.0141 0.9998 0.0133
vn 0.5387 0.6491 0.5370
vn 0.0027 0.9629 0.2700
vn 0.0340 0.0207 0.9992
vn 0.0331 0.4232 0.9054
vn 0.0366 0.9948 0.0948
vn 0.5642 0.0239 0.8253
vn 0.4723 0.5849 0.6593
vn 0.0152 0.9996 0.0231
vn 0.6682 0.0135 0.7438
vn 0.5342 0.5796 0.6154
vn 0.0027 0.9629 -0.2700
vn 0.0340 0.0207 -0.9992
vn 0.0331 0.4232 -0.9054
vn 0.0366 0.9948 -0.0948
vn 0.5642 0.0239 -0.8253
vn 0.4723 0.5849 -0.6593
vn -0.0672 0.0005 0.9977
vn -0.3753 0.0003 0.9269
vn -0.7039 0.0006 0.7103
vn -0.9226 0.0008 0.3856
vn -1.0000 0.0009 -0.0000
vn -0.9226 0.0008 -0.3856
vn -0.7039 0.0006 -0.7103
vn -0.3753 0.0003 -0.9269
vn -0.0672 0.0005 -0.9977
vn -0.0663 0.3479 0.9352
vn -0.0066 0.9681 0.2506
vn -0.0153 0.9989 0.0451
vn -0.3409 0.5137 0.7873
vn -0.0655 0.0145 0.9977
vn -0.3768 0.0080 0.9262
vn -0.0153 0.9997 0.0168
vn -0.5418 0.6397 0.5452
vn -0.7044 0.0194 0.7095
vn -0.0154 0.9999 0.0068
vn -0.6723 0.6845 0.2819
vn -0.9225 0.0252 0.3852
vn -0.0154 0.9999 -0.0000
vn -0.7168 0.6973 -0.0000
vn -0.9996 0.0271 -0.0000
vn -0.0154 0.9999 -0.0068
vn -0.6723 0.6845 -0.2819
vn -0.9225 0.0252 -0.3852
vn -0.0153 0.9997 -0.0168
vn -0.5418 0.6397 -0.5452
vn -0.7044 0.0194 -0.7095
vn -0.0663 0.3479 -0.9352
vn -0.0655 0.0145 -0.9977
vn -0.3768 0.0080 -0.9262
vn -0.3409 0.5137 -0.7873
vn -0.0066 0.9681 -0.2506
vn -0.0153 0.9989 -0.0451
vn 0.8291 0.0007 -0.5591
vn 0.9804 0.0008 -0.1968
vn 0.9804 0.0008 0.1968
vn 0.8291 0.0007 0.5591
vn 0.9974 0.0008 -0.0724
vn 0.1462 0.0007 0.9893
vn 0.1462 0.0007 -0.9893
vn 0.9974 0.0008 0.0724
vn 0.6262 0.0005 -0.7797
vn 0.6262 0.0005 0.7797
vn 0.6643 0.0779 -0.7434
vn 0.6255 0.0146 -0.7801
vn 0.7061 0.1014 -0.7008
vn 0.4929 0.6075 -0.6230
vn 0.1506 0.9686 -0.1980
vn 0.1322 0.9835 -0.1231
vn 0.0145 0.9997 -0.0187
vn 0.8286 0.0203 -0.5594
vn 0.9137 0.1314 -0.3845
vn 0.6042 0.6830 -0.4106
vn 0.1332 0.9897 -0.0530
vn 0.0140 0.9999 -0.0090
vn 0.9801 0.0239 -0.1969
vn 0.9899 0.1419 -0.0000
vn 0.6858 0.7146 -0.1381
vn 0.1337 0.9910 -0.0000
vn 0.0140 0.9999 -0.0027
vn 0.9801 0.0239 0.1969
vn 0.9137 0.1314 0.3845
vn 0.6858 0.7146 0.1381
vn 0.1332 0.9897 0.0530
vn 0.0140 0.9999 0.0027
vn 0.8286 0.0203 0.5594
vn 0.7061 0.1014 0.7008
vn 0.6042 0.6830 0.4106
vn 0.1322 0.9835 0.1231
vn 0.0140 0.9999 0.0090
vn -0.0093 0.0006 -1.0000
vn -0.0093 0.0006 1.0000
vn 0.1672 0.9203 0.3536
vn 0.0130 0.9827 0.1846
vn 0.0165 0.8020 0.5971
vn 0.1340 0.4600 0.8777
vn 0.5604 0.1361 0.8170
vn 0.0338 0.1202 0.9922
vn 0.1449 0.0205 0.9892
vn 0.0165 0.8020 -0.5971
vn 0.0130 0.9827 -0.1846
vn 0.1672 0.9203 -0.3536
vn 0.1340 0.4600 -0.8777
vn 0.0338 0.1202 -0.9922
vn 0.5604 0.1361 -0.8170
vn 0.1449 0.0205 -0.9892
vn 0.0178 0.9997 0.0136
vn 0.1506 0.9686 0.1980
vn 0.8036 0.5875 0.0952
vn 0.6643 0.0779 0.7434
vn 0.9971 0.0243 0.0715
vn -0.0018 0.9664 0.2569
vn -0.0018 0.9664 -0.2569
vn -0.0067 0.4026 -0.9154
vn -0.0087 0.0196 -0.9998
vn 0.6255 0.0146 0.7801
vn 0.4929 0.6075 0.6230
vn 0.0145 0.9997 0.0187
vn 0.0178 0.9997 -0.0136
vn 0.8036 0.5875 -0.0952
vn 0.9971 0.0243 -0.0715
vn -0.0001 1.0000 0.0049
vn 0.7125 0.0029 -0.7016
vn 0.6698 0.0023 -0.7426
vn 0.5650 0.0040 0.8251
vn 0.9226 0.0038 -0.3857
vn -0.0002 1.0000 -0.0000
vn 1.0000 0.0041 -0.0000
vn -0.0002 1.0000 -0.0002
vn 0.9226 0.0038 0.3857
vn -0.0002 1.0000 -0.0006
vn 0.7125 0.0029 0.7016
vn 0.6698 0.0023 0.7426
vn -0.0001 1.0000 -0.0049
vn -0.0002 1.0000 0.0006
vn 0.0342 0.0035 0.9994
vn -0.0002 1.0000 0.0002
vn -0.0087 0.0196 0.9998
vn -0.0067 0.4026 0.9154
vn 0.0342 0.0035 -0.9994
vn 0.5650 0.0040 -0.8251
vn -0.1934 0.0003 0.9811
vn -0.5522 0.0005 0.8337
vn -0.8291 0.0008 0.5590
vn -0.9804 0.0009 0.1968
vn -0.9804 0.0009 -0.1968
vn -0.8291 0.0008 -0.5590
vn -0.5522 0.0005 -0.8337
vn -0.1934 0.0003 -0.9811
vn -0.0384 0.8109 0.5839
vn -0.0152 0.9916 0.1286
vn -0.1280 0.9182 0.3749
vn -0.2058 0.4018 0.8923
vn -0.0601 0.0894 0.9942
vn -0.3805 0.0480 0.9235
vn -0.1924 0.0080 0.9813
vn -0.0153 0.9996 0.0253
vn -0.1405 0.9780 0.1545
vn -0.4511 0.5919 0.6679
vn -0.7028 0.1137 0.7022
vn -0.5536 0.0141 0.8326
vn -0.0154 0.9998 0.0111
vn -0.1441 0.9875 0.0642
vn -0.6170 0.6675 0.4168
vn -0.9138 0.1449 0.3795
vn -0.8292 0.0229 0.5585
vn -0.0154 0.9999 0.0033
vn -0.1450 0.9894 -0.0000
vn -0.7056 0.6942 0.1421
vn -0.9879 0.1550 -0.0000
vn -0.9801 0.0266 0.1965
vn -0.0154 0.9999 -0.0033
vn -0.1441 0.9875 -0.0642
vn -0.7056 0.6942 -0.1421
vn -0.9138 0.1449 -0.3795
vn -0.9801 0.0266 -0.1965
vn -0.0154 0.9998 -0.0111
vn -0.1405 0.9780 -0.1545
vn -0.6170 0.6675 -0.4168
vn -0.7028 0.1137 -0.7022
vn -0.8292 0.0229 -0.5585
vn -0.0601 0.0894 -0.9942
vn -0.1924 0.0080 -0.9813
vn -0.3805 0.0480 -0.9235
vn -0.2058 0.4018 -0.8923
vn -0.0384 0.8109 -0.5839
vn -0.1280 0.9182 -0.3749
vn -0.0152 0.9916 -0.1286
vn -0.0153 0.9996 -0.0253
vn -0.4511 0.5919 -0.6679
vn -0.5536 0.0141 -0.8326
vn -0.3756 0.0014 0.9268
vn -0.0669 0.0024 0.9978
vn -0.7040 0.0033 0.7102
vn -0.9227 0.0043 0.3856
vn -1.0000 0.0046 -0.0000
vn -0.9227 0.0043 -0.3856
vn -0.7040 0.0033 -0.7102
vn -0.3756 0.0014 -0.9268
vn -0.0669 0.0024 -0.9978
vn 0.9974 0.0041 -0.0723
vn -0.0002 1.0000 -0.0001
vn -0.0002 1.0000 -0.0004
vn -0.0070 0.1151 -0.9933
vn 0.6261 0.0025 0.7798
vn -0.0092 0.0033 1.0000
vn 0.1459 0.0035 0.9893
vn -0.0092 0.0033 -1.0000
vn -0.0083 0.7695 -0.6386
vn -0.0002 1.0000 -0.0011
vn 0.9804 0.0040 -0.1968
vn -0.0070 0.1152 0.9933
vn 0.6261 0.0025 -0.7798
vn 0.9804 0.0040 0.1968
vn 0.8291 0.0034 0.5591
vn 0.8291 0.0034 -0.5591
vn -0.0002 1.0000 0.0001
vn 0.9974 0.0041 0.0723
vn 0.1459 0.0035 -0.9893
vn 0.6213 0.0849 -0.7790
vn 0.1357 0.9765 -0.1676
vn 0.8214 0.1184 -0.5580
vn 0.1325 0.9876 -0.0846
vn 0.9707 0.1392 -0.1960
vn 0.1336 0.9907 -0.0256
vn 0.9707 0.1392 0.1960
vn 0.1336 0.9907 0.0256
vn 0.8214 0.1184 0.5580
vn 0.1325 0.9876 0.0846
vn 0.0026 0.9990 0.0453
vn -0.0002 1.0000 0.0004
vn 0.0026 0.9990 -0.0453
vn -0.0002 1.0000 0.0011
vn 0.0500 0.8409 0.5388
vn 0.1429 0.1182 0.9827
vn 0.0500 0.8409 -0.5388
vn 0.1429 0.1182 -0.9827
vn 0.2324 0.9686 0.0879
vn 0.9885 0.1374 0.0631
vn 0.6213 0.0849 0.7790
vn 0.1357 0.9765 0.1676
vn 0.2324 0.9686 -0.0879
vn 0.9885 0.1374 -0.0631
vn -0.5524 0.0024 0.8336
vn -0.8292 0.0039 0.5590
vn -0.9804 0.0045 0.1968
vn -0.9804 0.0045 -0.1968
vn -0.8292 0.0039 -0.5590
vn -0.5524 0.0024 -0.8336
vn -0.1932 0.0013 -0.9812
vn -0.1932 0.0013 0.9812
vn -0.0745 0.8512 0.5195
vn -0.1873 0.0490 0.9811
vn -0.1385 0.9632 0.2301
vn -0.5566 0.0840 0.8265
vn -0.1427 0.9844 0.1034
vn -0.8237 0.1323 0.5513
vn -0.1447 0.9890 0.0308
vn -0.9692 0.1525 0.1934
vn -0.1447 0.9890 -0.0308
vn -0.9692 0.1525 -0.1934
vn -0.1427 0.9844 -0.1034
vn -0.8237 0.1323 -0.5513
vn -0.1873 0.0490 -0.9811
vn -0.0745 0.8512 -0.5195
vn -0.1385 0.9632 -0.2301
vn -0.5566 0.0840 -0.8265
vn -0.0083 0.7695 0.6386
vt 0.058416 0.533598
vt 0.057290 0.583955
vt 0.042396 0.583637
vt 0.043459 0.533264
vt 0.056676 0.621886
vt 0.042049 0.621531
vt 0.035438 0.621687
vt 0.035658 0.583544
vt 0.036695 0.533123
vt 0.112651 0.346599
vt 0.099301 0.303779
vt 0.213620 0.303582
vt 0.226736 0.346238
vt 0.094771 0.259163
vt 0.209156 0.259163
vt 0.323224 0.259163
vt 0.327621 0.303690
vt 0.340571 0.346518
vt 0.163389 0.419950
vt 0.134345 0.385849
vt 0.247974 0.385459
vt 0.276348 0.419828
vt 0.361601 0.386034
vt 0.389862 0.420845
vt 0.278429 0.962514
vt 0.187930 0.963611
vt 0.185796 0.958069
vt 0.275777 0.957024
vt 0.103245 0.964727
vt 0.102215 0.959173
vt 0.101416 0.940985
vt 0.184412 0.939880
vt 0.274143 0.938845
vt 0.492613 0.624706
vt 0.491628 0.586177
vt 0.534816 0.584864
vt 0.535793 0.623142
vt 0.490282 0.535643
vt 0.533520 0.534427
vt 0.566628 0.533598
vt 0.567753 0.583955
vt 0.568367 0.621886
vt 0.589548 0.784150
vt 0.506552 0.783028
vt 0.507486 0.744513
vt 0.590352 0.745681
vt 0.416821 0.781976
vt 0.417757 0.743459
vt 0.418347 0.692716
vt 0.508217 0.693802
vt 0.591191 0.695014
vt 0.653676 0.696092
vt 0.652750 0.746763
vt 0.635517 0.746439
vt 0.636420 0.695786
vt 0.651789 0.785281
vt 0.634649 0.784877
vt 0.099791 0.851849
vt 0.182764 0.850653
vt 0.183486 0.901364
vt 0.100619 0.902515
vt 0.272634 0.849584
vt 0.273215 0.900327
vt 0.297952 0.484191
vt 0.369873 0.485960
vt 0.366948 0.489017
vt 0.279901 0.485916
vt 0.434576 0.487239
vt 0.449084 0.489610
vt 0.453280 0.492495
vt 0.368905 0.491977
vt 0.279096 0.488617
vt 0.234430 0.467382
vt 0.198013 0.447495
vt 0.310330 0.448051
vt 0.346511 0.468544
vt 0.423044 0.449440
vt 0.453108 0.469571
vt 0.222451 0.627016
vt 0.223026 0.588333
vt 0.267790 0.588924
vt 0.267488 0.627612
vt 0.223886 0.537808
vt 0.268253 0.538445
vt 0.312522 0.538703
vt 0.312522 0.589124
vt 0.312522 0.627800
vt 0.587715 0.807891
vt 0.503030 0.806760
vt 0.505165 0.801217
vt 0.588745 0.802338
vt 0.412531 0.805645
vt 0.415184 0.800155
vt 0.132431 0.624706
vt 0.089250 0.623142
vt 0.090228 0.584864
vt 0.133416 0.586177
vt 0.091524 0.534427
vt 0.134762 0.535643
vt 0.357253 0.588924
vt 0.357556 0.627612
vt 0.356791 0.538445
vt 0.401158 0.537808
vt 0.402018 0.588333
vt 0.402592 0.627016
vt 0.446821 0.587394
vt 0.447633 0.626037
vt 0.445647 0.536843
vt 0.178223 0.587394
vt 0.177411 0.626037
vt 0.179397 0.536843
vt 0.099301 0.214547
vt 0.213620 0.214744
vt 0.112652 0.171728
vt 0.226736 0.172088
vt 0.340571 0.171808
vt 0.327621 0.214636
vt 0.588348 0.533124
vt 0.589385 0.583545
vt 0.582647 0.583637
vt 0.581584 0.533264
vt 0.589605 0.621687
vt 0.582995 0.621531
vt 0.055455 0.903265
vt 0.054561 0.852612
vt 0.056315 0.941703
vt 0.039175 0.942104
vt 0.038221 0.903586
vt 0.037305 0.852914
vt 0.089090 0.641221
vt 0.056574 0.639642
vt 0.132322 0.642933
vt 0.133070 0.648491
vt 0.089900 0.646725
vt 0.057322 0.645064
vt 0.508750 0.047798
vt 0.482855 0.068226
vt 0.473679 0.068079
vt 0.500019 0.047872
vt 0.450419 0.096977
vt 0.441143 0.096821
vt 0.389862 0.097481
vt 0.423044 0.068886
vt 0.453108 0.048755
vt 0.177335 0.644323
vt 0.222396 0.645324
vt 0.222812 0.650939
vt 0.177939 0.649916
vt 0.422164 0.131956
vt 0.412881 0.131842
vt 0.401139 0.171623
vt 0.391860 0.171551
vt 0.361601 0.132292
vt 0.267448 0.645927
vt 0.312522 0.646091
vt 0.312522 0.651749
vt 0.267660 0.651557
vt 0.388216 0.214562
vt 0.378940 0.214528
vt 0.383839 0.259163
vt 0.374568 0.259163
vt 0.357595 0.645927
vt 0.402648 0.645324
vt 0.402231 0.650939
vt 0.357383 0.651557
vt 0.388216 0.303764
vt 0.378940 0.303798
vt 0.401139 0.346704
vt 0.391860 0.346775
vt 0.447708 0.644323
vt 0.492722 0.642934
vt 0.491974 0.648491
vt 0.447105 0.649916
vt 0.422164 0.386370
vt 0.412881 0.386484
vt 0.450419 0.421349
vt 0.441143 0.421505
vt 0.346511 0.049782
vt 0.386639 0.037414
vt 0.474838 0.038295
vt 0.234430 0.050944
vt 0.268966 0.039129
vt 0.297952 0.034136
vt 0.369873 0.032366
vt 0.434576 0.031087
vt 0.464217 0.032940
vt 0.490751 0.034416
vt 0.247974 0.132867
vt 0.134345 0.132477
vt 0.163389 0.098376
vt 0.276348 0.098498
vt 0.268966 0.479197
vt 0.386639 0.480912
vt 0.474838 0.480031
vt 0.490751 0.483910
vt 0.464217 0.485387
vt 0.310330 0.070275
vt 0.198013 0.070831
vt 0.493261 0.030364
vt 0.509393 0.033256
vt 0.449084 0.028716
vt 0.453280 0.025832
vt 0.498548 0.027729
vt 0.514646 0.031370
vt 0.649754 0.809040
vt 0.633133 0.808529
vt 0.633891 0.802988
vt 0.650820 0.803495
vt 0.493261 0.487962
vt 0.509393 0.485070
vt 0.514646 0.486956
vt 0.498548 0.490598
vt 0.057826 0.965356
vt 0.057069 0.959814
vt 0.041205 0.965864
vt 0.040140 0.960318
vt 0.511094 0.480838
vt 0.500019 0.470454
vt 0.508750 0.470528
vt 0.518494 0.481749
vt 0.587869 0.644814
vt 0.581988 0.644042
vt 0.582503 0.638695
vt 0.588614 0.639378
vt 0.567721 0.645064
vt 0.568470 0.639642
vt 0.535954 0.641222
vt 0.535143 0.646725
vt 0.482855 0.450100
vt 0.473680 0.450247
vt 0.511094 0.037488
vt 0.518494 0.036578
vt 0.043055 0.644042
vt 0.042541 0.638695
vt 0.037175 0.644814
vt 0.036429 0.639378
vt 0.215465 0.780959
vt 0.214978 0.742724
vt 0.259744 0.742553
vt 0.259994 0.780912
vt 0.214499 0.692113
vt 0.259596 0.691844
vt 0.304810 0.691853
vt 0.304674 0.742639
vt 0.304603 0.781118
vt 0.171146 0.781357
vt 0.170398 0.743222
vt 0.127004 0.782157
vt 0.125968 0.744082
vt 0.124749 0.693652
vt 0.169548 0.692709
vt 0.082918 0.783425
vt 0.081604 0.745310
vt 0.038601 0.785243
vt 0.037175 0.746830
vt 0.035553 0.696330
vt 0.080095 0.694903
vt 0.652363 0.942185
vt 0.608046 0.940358
vt 0.609368 0.902243
vt 0.653796 0.903771
vt 0.563961 0.939081
vt 0.565004 0.901007
vt 0.566233 0.850577
vt 0.610886 0.851837
vt 0.655428 0.853272
vt 0.519818 0.938273
vt 0.520574 0.900138
vt 0.475500 0.937866
vt 0.475994 0.899632
vt 0.476482 0.849020
vt 0.521434 0.849626
vt 0.430971 0.937811
vt 0.431228 0.899451
vt 0.386330 0.938160
vt 0.386330 0.899657
vt 0.386172 0.848743
vt 0.431386 0.848743
vt 0.338711 0.899657
vt 0.338065 0.849008
vt 0.338711 0.938160
vt 0.352534 0.742904
vt 0.351981 0.781431
vt 0.352917 0.692127
vt 0.223501 0.039048
vt 0.279900 0.032410
vt 0.184402 0.050364
vt 0.176221 0.049232
vt 0.218253 0.037100
vt 0.279096 0.029709
vt 0.349776 0.805082
vt 0.351113 0.799622
vt 0.305238 0.804762
vt 0.304773 0.799301
vt 0.147067 0.069857
vt 0.111983 0.097500
vt 0.102442 0.097048
vt 0.137728 0.069187
vt 0.261784 0.804523
vt 0.260622 0.799027
vt 0.217267 0.804524
vt 0.216166 0.799007
vt 0.082744 0.131866
vt 0.060975 0.171375
vt 0.051427 0.171192
vt 0.073191 0.131563
vt 0.172781 0.804890
vt 0.171873 0.799356
vt 0.128472 0.805681
vt 0.127770 0.800127
vt 0.047605 0.214398
vt 0.043074 0.259163
vt 0.033550 0.259163
vt 0.038068 0.214314
vt 0.084252 0.806979
vt 0.083750 0.801389
vt 0.039863 0.809040
vt 0.039456 0.803398
vt 0.047605 0.303928
vt 0.060975 0.346951
vt 0.051427 0.347134
vt 0.038068 0.304012
vt 0.651096 0.965981
vt 0.606708 0.963912
vt 0.607211 0.958322
vt 0.651505 0.960339
vt 0.562488 0.962606
vt 0.563191 0.957051
vt 0.082744 0.386460
vt 0.111983 0.420826
vt 0.102442 0.421278
vt 0.073191 0.386763
vt 0.518178 0.961805
vt 0.519089 0.956272
vt 0.473693 0.961431
vt 0.474796 0.955914
vt 0.339848 0.956503
vt 0.386188 0.956191
vt 0.385722 0.961652
vt 0.341184 0.961963
vt 0.218253 0.481226
vt 0.223501 0.479278
vt 0.176221 0.469094
vt 0.184402 0.467962
vt 0.147067 0.448469
vt 0.137728 0.449139
vt 0.429176 0.961421
vt 0.430339 0.955925
vt 0.366947 0.029309
vt 0.368905 0.026349
s 1
usemtl Material
f 6/1/6 151/2/151 228/3/228 85/4/85
f 151/2/151 13/5/13 148/6/148 228/3/228
f 228/3/228 148/6/148 34/7/34 152/8/152
f 85/4/85 228/3/228 152/8/152 8/9/8
f 69/10/69 199/11/199 229/12/229 156/13/156
f 199/11/199 66/14/66 154/15/154 229/12/229
f 229/12/229 154/15/154 22/16/22 112/17/112
f 156/13/156 229/12/229 112/17/112 25/18/25
f 72/19/72 204/20/204 230/21/230 158/22/158
f 204/20/204 69/10/69 156/13/156 230/21/230
f 230/21/230 156/13/156 25/18/25 117/23/117
f 158/22/158 230/21/230 117/23/117 28/24/28
f 75/25/75 141/26/141 231/27/231 209/28/209
f 141/26/141 41/29/41 131/30/131 231/27/231
f 231/27/231 131/30/131 40/31/40 142/32/142
f 209/28/209 231/27/231 142/32/142 76/33/76
f 27/34/27 159/35/159 232/36/232 143/37/143
f 159/35/159 5/38/5 90/39/90 232/36/232
f 232/36/232 90/39/90 10/40/10 160/41/160
f 143/37/143 232/36/232 160/41/160 37/42/37
f 31/43/31 165/44/165 233/45/233 163/46/163
f 165/44/165 58/47/58 220/48/220 233/45/233
f 233/45/233 220/48/220 45/49/45 119/50/119
f 163/46/163 233/45/233 119/50/119 7/51/7
f 8/52/8 152/53/152 234/54/234 86/55/86
f 152/53/152 34/56/34 126/57/126 234/54/234
f 234/54/234 126/57/126 31/43/31 163/46/163
f 86/55/86 234/54/234 163/46/163 7/51/7
f 9/58/9 118/59/118 235/60/235 167/61/167
f 118/59/118 53/62/53 227/63/227 235/60/235
f 235/60/235 227/63/227 76/33/76 142/32/142
f 167/61/167 235/60/235 142/32/142 40/31/40
f 79/64/79 140/65/140 236/66/236 213/67/213
f 140/65/140 39/68/39 127/69/127 236/66/236
f 236/66/236 127/69/127 41/70/41 141/71/141
f 213/67/213 236/66/236 141/71/141 75/72/75
f 80/73/80 216/74/216 237/75/237 161/76/161
f 216/74/216 72/19/72 158/22/158 237/75/237
f 237/75/237 158/22/158 28/24/28 145/77/145
f 161/76/161 237/75/237 145/77/145 36/78/36
f 18/79/18 153/80/153 238/81/238 103/82/103
f 153/80/153 2/83/2 82/84/82 238/81/238
f 238/81/238 82/84/82 3/85/3 155/86/155
f 103/82/103 238/81/238 155/86/155 21/87/21
f 32/88/32 166/89/166 239/90/239 125/91/125
f 166/89/166 54/92/54 181/93/181 239/90/239
f 239/90/239 181/93/181 58/47/58 165/44/165
f 125/91/125 239/90/239 165/44/165 31/43/31
f 15/94/15 92/95/92 240/96/240 150/97/150
f 92/95/92 13/5/13 151/2/151 240/96/240
f 240/96/240 151/2/151 6/1/6 89/98/89
f 150/97/150 240/96/240 89/98/89 1/99/1
f 21/87/21 155/86/155 241/100/241 108/101/108
f 155/86/155 3/85/3 83/102/83 241/100/241
f 241/100/241 83/102/83 4/103/4 157/104/157
f 108/101/108 241/100/241 157/104/157 24/105/24
f 24/105/24 157/104/157 242/106/242 113/107/113
f 157/104/157 4/103/4 84/108/84 242/106/242
f 242/106/242 84/108/84 5/38/5 159/35/159
f 113/107/113 242/106/242 159/35/159 27/34/27
f 15/94/15 150/97/150 243/109/243 98/110/98
f 150/97/150 1/99/1 81/111/81 243/109/243
f 243/109/243 81/111/81 2/83/2 153/80/153
f 98/110/98 243/109/243 153/80/153 18/79/18
f 66/14/66 194/112/194 244/113/244 154/15/154
f 194/112/194 63/114/63 164/115/164 244/113/244
f 244/113/244 164/115/164 19/116/19 107/117/107
f 154/15/154 244/113/244 107/117/107 22/16/22
f 11/118/11 168/119/168 245/120/245 88/121/88
f 168/119/168 43/122/43 138/123/138 245/120/245
f 245/120/245 138/123/138 37/42/37 160/41/160
f 88/121/88 245/120/245 160/41/160 10/40/10
f 9/58/9 167/61/167 246/124/246 87/125/87
f 167/61/167 40/31/40 133/126/133 246/124/246
f 246/124/246 133/126/133 43/127/43 168/128/168
f 87/125/87 246/124/246 168/128/168 11/129/11
f 13/5/13 92/95/92 247/130/247 91/131/91
f 92/95/92 15/94/15 93/132/93 247/130/247
f 247/130/247 93/132/93 17/133/17 94/134/94
f 91/131/91 247/130/247 94/134/94 14/135/14
f 14/136/14 94/137/94 248/138/248 95/139/95
f 94/137/94 17/140/17 96/141/96 248/138/248
f 248/138/248 96/141/96 16/142/16 97/143/97
f 95/139/95 248/138/248 97/143/97 12/144/12
f 15/94/15 98/110/98 249/145/249 93/132/93
f 98/110/98 18/79/18 99/146/99 249/145/249
f 249/145/249 99/146/99 20/147/20 100/148/100
f 93/132/93 249/145/249 100/148/100 17/133/17
f 17/140/17 100/149/100 250/150/250 96/141/96
f 100/149/100 20/151/20 101/152/101 250/150/250
f 250/150/250 101/152/101 19/116/19 102/153/102
f 96/141/96 250/150/250 102/153/102 16/142/16
f 18/79/18 103/82/103 251/154/251 99/146/99
f 103/82/103 21/87/21 104/155/104 251/154/251
f 251/154/251 104/155/104 23/156/23 105/157/105
f 99/146/99 251/154/251 105/157/105 20/147/20
f 20/151/20 105/158/105 252/159/252 101/152/101
f 105/158/105 23/160/23 106/161/106 252/159/252
f 252/159/252 106/161/106 22/16/22 107/117/107
f 101/152/101 252/159/252 107/117/107 19/116/19
f 21/87/21 108/101/108 253/162/253 104/155/104
f 108/101/108 24/105/24 109/163/109 253/162/253
f 253/162/253 109/163/109 26/164/26 110/165/110
f 104/155/104 253/162/253 110/165/110 23/156/23
f 23/160/23 110/166/110 254/167/254 106/161/106
f 110/166/110 26/168/26 111/169/111 254/167/254
f 254/167/254 111/169/111 25/18/25 112/17/112
f 106/161/106 254/167/254 112/17/112 22/16/22
f 24/105/24 113/107/113 255/170/255 109/163/109
f 113/107/113 27/34/27 114/171/114 255/170/255
f 255/170/255 114/171/114 29/172/29 115/173/115
f 109/163/109 255/170/255 115/173/115 26/164/26
f 26/168/26 115/174/115 256/175/256 111/169/111
f 115/174/115 29/176/29 116/177/116 256/175/256
f 256/175/256 116/177/116 28/24/28 117/23/117
f 111/169/111 256/175/256 117/23/117 25/18/25
f 12/144/12 149/178/149 257/179/257 146/180/146
f 56/181/56 178/182/178 257/179/257 149/178/149
f 55/183/55 139/184/139 257/179/257 178/182/178
f 30/185/30 121/186/121 257/179/257 139/184/139
f 33/187/33 146/180/146 257/179/257 121/186/121
f 19/116/19 164/115/164 258/188/258 102/153/102
f 164/115/164 63/114/63 189/189/189 258/188/258
f 258/188/258 189/189/189 60/190/60 162/191/162
f 102/153/102 258/188/258 162/191/162 16/142/16
f 79/64/79 215/192/215 259/193/259 140/65/140
f 80/73/80 161/76/161 259/193/259 215/192/215
f 36/78/36 134/194/134 259/193/259 161/76/161
f 42/195/42 128/196/128 259/193/259 134/194/134
f 39/68/39 140/65/140 259/193/259 128/196/128
f 16/142/16 162/191/162 260/197/260 97/143/97
f 162/191/162 60/190/60 184/198/184 260/197/260
f 260/197/260 184/198/184 56/181/56 149/178/149
f 97/143/97 260/197/260 149/178/149 12/144/12
f 33/187/33 121/186/121 261/199/261 120/200/120
f 121/186/121 30/185/30 122/201/122 261/199/261
f 261/199/261 122/201/122 32/202/32 123/203/123
f 120/200/120 261/199/261 123/203/123 35/204/35
f 35/205/35 123/206/123 262/207/262 124/208/124
f 123/206/123 32/88/32 125/91/125 262/207/262
f 262/207/262 125/91/125 31/43/31 126/57/126
f 124/208/124 262/207/262 126/57/126 34/56/34
f 39/68/39 128/196/128 263/209/263 127/69/127
f 128/196/128 42/195/42 129/210/129 263/209/263
f 263/209/263 129/210/129 44/211/44 130/212/130
f 127/69/127 263/209/263 130/212/130 41/70/41
f 41/29/41 130/213/130 264/214/264 131/30/131
f 130/213/130 44/215/44 132/216/132 264/214/264
f 264/214/264 132/216/132 43/127/43 133/126/133
f 131/30/131 264/214/264 133/126/133 40/31/40
f 42/195/42 134/194/134 265/217/265 129/210/129
f 134/194/134 36/78/36 135/218/135 265/217/265
f 265/217/265 135/218/135 38/219/38 136/220/136
f 129/210/129 265/217/265 136/220/136 44/211/44
f 44/221/44 136/222/136 266/223/266 132/224/132
f 136/222/136 38/225/38 137/226/137 266/223/266
f 266/223/266 137/226/137 37/42/37 138/123/138
f 132/224/132 266/223/266 138/123/138 43/122/43
f 27/34/27 143/37/143 267/227/267 114/171/114
f 143/37/143 37/42/37 137/226/137 267/227/267
f 267/227/267 137/226/137 38/225/38 144/228/144
f 114/171/114 267/227/267 144/228/144 29/172/29
f 29/176/29 144/229/144 268/230/268 116/177/116
f 144/229/144 38/219/38 135/218/135 268/230/268
f 268/230/268 135/218/135 36/78/36 145/77/145
f 116/177/116 268/230/268 145/77/145 28/24/28
f 12/144/12 146/180/146 269/231/269 95/139/95
f 146/180/146 33/187/33 120/200/120 269/231/269
f 269/231/269 120/200/120 35/204/35 147/232/147
f 95/139/95 269/231/269 147/232/147 14/136/14
f 14/135/14 147/233/147 270/234/270 91/131/91
f 147/233/147 35/235/35 124/236/124 270/234/270
f 270/234/270 124/236/124 34/7/34 148/6/148
f 91/131/91 270/234/270 148/6/148 13/5/13
f 62/237/62 221/238/221 271/239/271 188/240/188
f 221/238/221 47/241/47 170/242/170 271/239/271
f 271/239/271 170/242/170 46/243/46 219/244/219
f 188/240/188 271/239/271 219/244/219 59/245/59
f 62/237/62 193/246/193 272/247/272 221/238/221
f 193/246/193 65/248/65 222/249/222 272/247/272
f 272/247/272 222/249/222 48/250/48 171/251/171
f 221/238/221 272/247/272 171/251/171 47/241/47
f 65/248/65 198/252/198 273/253/273 222/249/222
f 198/252/198 68/254/68 223/255/223 273/253/273
f 273/253/273 223/255/223 49/256/49 172/257/172
f 222/249/222 273/253/273 172/257/172 48/250/48
f 68/258/68 203/259/203 274/260/274 223/261/223
f 203/259/203 71/262/71 224/263/224 274/260/274
f 274/260/274 224/263/224 50/264/50 173/265/173
f 223/261/223 274/260/274 173/265/173 49/266/49
f 71/262/71 208/267/208 275/268/275 224/263/224
f 208/267/208 74/269/74 225/270/225 275/268/275
f 275/268/275 225/270/225 51/271/51 174/272/174
f 224/263/224 275/268/275 174/272/174 50/264/50
f 74/269/74 218/273/218 276/274/276 225/270/225
f 218/273/218 77/275/77 226/276/226 276/274/276
f 276/274/276 226/276/226 52/277/52 175/278/175
f 225/270/225 276/274/276 175/278/175 51/271/51
f 52/277/52 226/276/226 277/279/277 176/280/176
f 226/276/226 77/275/77 210/281/210 277/279/277
f 277/279/277 210/281/210 76/33/76 227/63/227
f 176/280/176 277/279/277 227/63/227 53/62/53
f 59/245/59 219/244/219 278/282/278 183/283/183
f 219/244/219 46/243/46 169/284/169 278/282/278
f 278/282/278 169/284/169 45/49/45 220/48/220
f 183/283/183 278/282/278 220/48/220 58/47/58
f 55/183/55 178/182/178 279/285/279 177/286/177
f 178/182/178 56/181/56 179/287/179 279/285/279
f 279/285/279 179/287/179 57/288/57 180/289/180
f 177/286/177 279/285/279 180/289/180 54/290/54
f 54/92/54 180/291/180 280/292/280 181/93/181
f 180/291/180 57/293/57 182/294/182 280/292/280
f 280/292/280 182/294/182 59/245/59 183/283/183
f 181/93/181 280/292/280 183/283/183 58/47/58
f 56/181/56 184/198/184 281/295/281 179/287/179
f 184/198/184 60/190/60 185/296/185 281/295/281
f 281/295/281 185/296/185 61/297/61 186/298/186
f 179/287/179 281/295/281 186/298/186 57/288/57
f 57/293/57 186/299/186 282/300/282 182/294/182
f 186/299/186 61/301/61 187/302/187 282/300/282
f 282/300/282 187/302/187 62/237/62 188/240/188
f 182/294/182 282/300/282 188/240/188 59/245/59
f 60/190/60 189/189/189 283/303/283 185/296/185
f 189/189/189 63/114/63 190/304/190 283/303/283
f 283/303/283 190/304/190 64/305/64 191/306/191
f 185/296/185 283/303/283 191/306/191 61/297/61
f 61/301/61 191/307/191 284/308/284 187/302/187
f 191/307/191 64/309/64 192/310/192 284/308/284
f 284/308/284 192/310/192 65/248/65 193/246/193
f 187/302/187 284/308/284 193/246/193 62/237/62
f 63/114/63 194/112/194 285/311/285 190/304/190
f 194/112/194 66/14/66 195/312/195 285/311/285
f 285/311/285 195/312/195 67/313/67 196/314/196
f 190/304/190 285/311/285 196/314/196 64/305/64
f 64/309/64 196/315/196 286/316/286 192/310/192
f 196/315/196 67/317/67 197/318/197 286/316/286
f 286/316/286 197/318/197 68/254/68 198/252/198
f 192/310/192 286/316/286 198/252/198 65/248/65
f 66/14/66 199/11/199 287/319/287 195/312/195
f 199/11/199 69/10/69 200/320/200 287/319/287
f 287/319/287 200/320/200 70/321/70 201/322/201
f 195/312/195 287/319/287 201/322/201 67/313/67
f 67/323/67 201/324/201 288/325/288 197/326/197
f 201/324/201 70/327/70 202/328/202 288/325/288
f 288/325/288 202/328/202 71/262/71 203/259/203
f 197/326/197 288/325/288 203/259/203 68/258/68
f 69/10/69 204/20/204 289/329/289 200/320/200
f 204/20/204 72/19/72 205/330/205 289/329/289
f 289/329/289 205/330/205 73/331/73 206/332/206
f 200/320/200 289/329/289 206/332/206 70/321/70
f 70/327/70 206/333/206 290/334/290 202/328/202
f 206/333/206 73/335/73 207/336/207 290/334/290
f 290/334/290 207/336/207 74/269/74 208/267/208
f 202/328/202 290/334/290 208/267/208 71/262/71
f 76/33/76 210/281/210 291/337/291 209/28/209
f 210/281/210 77/275/77 211/338/211 291/337/291
f 291/337/291 211/338/211 78/339/78 212/340/212
f 209/28/209 291/337/291 212/340/212 75/25/75
f 75/72/75 212/341/212 292/342/292 213/67/213
f 212/341/212 78/343/78 214/344/214 292/342/292
f 292/342/292 214/344/214 80/73/80 215/192/215
f 213/67/213 292/342/292 215/192/215 79/64/79
f 72/19/72 216/74/216 293/345/293 205/330/205
f 216/74/216 80/73/80 214/344/214 293/345/293
f 293/345/293 214/344/214 78/343/78 217/346/217
f 205/330/205 293/345/293 217/346/217 73/331/73
f 73/335/73 217/347/217 294/348/294 207/336/207
f 217/347/217 78/339/78 211/338/211 294/348/294
f 294/348/294 211/338/211 77/275/77 218/273/218
f 207/336/207 294/348/294 218/273/218 74/269/74
f 30/185/30 139/184/139 295/349/295 122/201/122
f 139/184/139 55/183/55 177/286/177 295/349/295
f 295/349/295 177/286/177 54/290/54 166/350/166
f 122/201/122 295/349/295 166/350/166 32/202/32
