# Blender 4.1.0
# www.blender.org
mtllib ConveyorBelt.mtl
o Cylinder
v -1.517664 -0.000000 4.136334
v 1.517664 0.000000 4.136334
v -1.517664 -0.266801 4.207824
v 1.517664 -0.266800 4.207824
v -1.517664 -0.462112 4.403135
v 1.517664 -0.462112 4.403135
v -1.517664 -0.533601 4.669936
v 1.517664 -0.533601 4.669936
v -1.517664 -0.462112 4.936736
v 1.517664 -0.462112 4.936736
v -1.517664 -0.266801 5.132048
v 1.517664 -0.266800 5.132048
v -1.517664 -0.000000 5.203537
v 1.517664 0.000000 5.203537
v -1.517664 0.266800 5.132048
v 1.517664 0.266801 5.132048
v -1.517664 0.462112 4.936736
v 1.517664 0.462112 4.936736
v -1.517664 0.533601 4.669936
v 1.517664 0.533601 4.669936
v -1.517664 0.462112 4.403135
v 1.517664 0.462112 4.403135
v -1.517664 0.266800 4.207824
v 1.517664 0.266801 4.207824
v -1.517664 -0.000000 -4.136334
v 1.517664 0.000000 -4.136334
v -1.517664 -0.266801 -4.207824
v 1.517664 -0.266800 -4.207824
v -1.517664 -0.462112 -4.403135
v 1.517664 -0.462112 -4.403135
v -1.517664 -0.533601 -4.669936
v 1.517664 -0.533601 -4.669936
v -1.517664 -0.462112 -4.936736
v 1.517664 -0.462112 -4.936736
v -1.517664 -0.266801 -5.132048
v 1.517664 -0.266800 -5.132048
v -1.517664 -0.000000 -5.203537
v 1.517664 0.000000 -5.203537
v -1.517664 0.266800 -5.132048
v 1.517664 0.266801 -5.132048
v -1.517664 0.462112 -4.936736
v 1.517664 0.462112 -4.936736
v -1.517664 0.533601 -4.669936
v 1.517664 0.533601 -4.669936
v -1.517664 0.462112 -4.403135
v 1.517664 0.462112 -4.403135
v -1.517664 0.266800 -4.207824
v 1.517664 0.266801 -4.207824
vn -0.0000 -0.2588 -0.9659
vn -0.0000 -0.7071 -0.7071
vn -0.0000 -0.9659 -0.2588
vn -0.0000 0.9659 -0.2588
vn 1.0000 -0.0000 -0.0000
vn -0.0000 0.7071 -0.7071
vn -0.0000 0.2588 -0.9659
vn -1.0000 -0.0000 -0.0000
vn -0.0000 -0.2588 0.9659
vn -0.0000 -0.7071 0.7071
vn -0.0000 -0.9659 0.2588
vn -0.0000 0.9659 0.2588
vn -0.0000 0.7071 0.7071
vn -0.0000 0.2588 0.9659
vt 0.069227 0.810673
vt 0.069227 0.978329
vt 0.053970 0.978329
vt 0.053970 0.810673
vt 0.038714 0.978329
vt 0.038714 0.810673
vt 0.023457 0.978329
vt 0.023457 0.810673
vt 0.114996 0.810673
vt 0.114996 0.978329
vt 0.099740 0.978329
vt 0.099740 0.810673
vt 0.466855 0.955059
vt 0.459227 0.968272
vt 0.446014 0.975900
vt 0.430758 0.975900
vt 0.417545 0.968272
vt 0.409917 0.955059
vt 0.409917 0.939803
vt 0.417545 0.926590
vt 0.430757 0.918962
vt 0.446014 0.918962
vt 0.459226 0.926590
vt 0.466855 0.939803
vt 0.084483 0.978329
vt 0.084483 0.810673
vt 0.377122 0.924410
vt 0.363910 0.916782
vt 0.356281 0.903569
vt 0.356281 0.888313
vt 0.363910 0.875100
vt 0.377122 0.867472
vt 0.392379 0.867472
vt 0.405591 0.875100
vt 0.413219 0.888313
vt 0.413219 0.903569
vt 0.405591 0.916782
vt 0.392379 0.924410
s 0
f 1/1/1 2/2/1 4/3/1 3/4/1
f 3/4/2 4/3/2 6/5/2 5/6/2
f 5/6/3 6/5/3 8/7/3 7/8/3
f 19/9/4 20/10/4 22/11/4 21/12/4
f 4/13/5 2/14/5 24/15/5 22/16/5 20/17/5 18/18/5 16/19/5 14/20/5 12/21/5 10/22/5 8/23/5 6/24/5
f 21/12/6 22/11/6 24/25/6 23/26/6
f 23/26/7 24/25/7 2/2/7 1/1/7
f 1/27/8 3/28/8 5/29/8 7/30/8 9/31/8 11/32/8 13/33/8 15/34/8 17/35/8 19/36/8 21/37/8 23/38/8
f 25/1/9 27/4/9 28/3/9 26/2/9
f 27/4/10 29/6/10 30/5/10 28/3/10
f 29/6/11 31/8/11 32/7/11 30/5/11
f 43/9/12 45/12/12 46/11/12 44/10/12
f 28/13/5 30/24/5 32/23/5 34/22/5 36/21/5 38/20/5 40/19/5 42/18/5 44/17/5 46/16/5 48/15/5 26/14/5
f 45/12/13 47/26/13 48/25/13 46/11/13
f 47/26/14 25/1/14 26/2/14 48/25/14
f 25/27/8 47/38/8 45/37/8 43/36/8 41/35/8 39/34/8 37/33/8 35/32/8 33/31/8 31/30/8 29/29/8 27/28/8
o Cylinder.001
v 1.628931 -0.673289 4.668162
v 1.628931 -0.582403 5.029315
v 1.628931 -0.334096 5.293696
v 1.628931 -0.000208 5.389503
v 1.628931 0.344289 5.293696
v 1.628931 0.592596 5.029315
v 1.628931 0.685082 4.669564
v 1.633529 0.520674 4.669564
v 1.628931 -0.522361 4.668162
v 1.628931 -0.448893 4.929892
v 1.628931 -0.256040 5.122745
v 1.628931 -0.000213 5.193435
v 1.628931 0.262803 5.122177
v 1.628931 0.455977 4.933484
v 1.633529 0.520674 0.000000
v 1.631230 0.685882 0.000000
v -0.000000 -0.673289 4.668162
v -0.000000 -0.582403 5.029315
v -0.000000 -0.334097 5.293696
v -0.000000 -0.000208 5.389503
v -0.000000 0.344289 5.293696
v -0.000000 0.592595 5.029315
v -0.000000 0.685082 4.669564
v 0.000963 0.520674 4.669564
v -0.000000 -0.522362 4.668162
v -0.000000 -0.448894 4.929892
v -0.000000 -0.256040 5.122745
v -0.000000 -0.000213 5.193435
v -0.000000 0.262803 5.122177
v -0.000000 0.455976 4.933483
v -0.000000 0.685882 0.000000
v 0.000963 0.520674 0.000000
v 1.628931 -0.522361 0.000000
v 1.628931 -0.673289 0.000000
v -0.000000 -0.673289 0.000000
v -0.000000 -0.522362 0.000000
v -1.628931 -0.673289 4.668162
v -1.628931 -0.582403 5.029315
v -1.628931 -0.334096 5.293696
v -1.628931 -0.000208 5.389503
v -1.628931 0.344289 5.293696
v -1.628931 0.592596 5.029315
v -1.628931 0.685082 4.669564
v -1.633529 0.520674 4.669564
v -1.628931 -0.522361 4.668162
v -1.628931 -0.448893 4.929892
v -1.628931 -0.256040 5.122745
v -1.628931 -0.000213 5.193435
v -1.628931 0.262803 5.122177
v -1.628931 0.455977 4.933484
v -1.633529 0.520674 0.000000
v -1.631230 0.685882 0.000000
v -0.000963 0.520674 4.669564
v -0.000963 0.520674 0.000000
v -1.628931 -0.522361 0.000000
v -1.628931 -0.673289 0.000000
v 1.628931 -0.673289 -4.668162
v 1.628931 -0.582403 -5.029315
v 1.628931 -0.334096 -5.293696
v 1.628931 -0.000208 -5.389503
v 1.628931 0.344289 -5.293696
v 1.628931 0.592596 -5.029315
v 1.628931 0.685082 -4.669564
v 1.633529 0.520674 -4.669564
v 1.628931 -0.522361 -4.668162
v 1.628931 -0.448893 -4.929892
v 1.628931 -0.256040 -5.122745
v 1.628931 -0.000213 -5.193435
v 1.628931 0.262803 -5.122177
v 1.628931 0.455977 -4.933484
v -0.000000 -0.673289 -4.668162
v -0.000000 -0.582403 -5.029315
v -0.000000 -0.334097 -5.293696
v -0.000000 -0.000208 -5.389503
v -0.000000 0.344289 -5.293696
v -0.000000 0.592595 -5.029315
v -0.000000 0.685082 -4.669564
v 0.000963 0.520674 -4.669564
v -0.000000 -0.522362 -4.668162
v -0.000000 -0.448894 -4.929892
v -0.000000 -0.256040 -5.122745
v -0.000000 -0.000213 -5.193435
v -0.000000 0.262803 -5.122177
v -0.000000 0.455976 -4.933483
v -1.628931 -0.673289 -4.668162
v -1.628931 -0.582403 -5.029315
v -1.628931 -0.334096 -5.293696
v -1.628931 -0.000208 -5.389503
v -1.628931 0.344289 -5.293696
v -1.628931 0.592596 -5.029315
v -1.628931 0.685082 -4.669564
v -1.633529 0.520674 -4.669564
v -1.628931 -0.522361 -4.668162
v -1.628931 -0.448893 -4.929892
v -1.628931 -0.256040 -5.122745
v -1.628931 -0.000213 -5.193435
v -1.628931 0.262803 -5.122177
v -1.628931 0.455977 -4.933484
v -0.000963 0.520674 -4.669564
vn -0.0000 -0.9698 0.2440
vn -0.0000 -0.7289 0.6846
vn -0.0000 -0.2758 0.9612
vn -0.0000 0.2679 0.9634
vn -0.0000 0.7289 0.6846
vn -0.0000 0.9685 0.2490
vn 0.9999 0.0120 0.0104
vn 1.0000 -0.0000 -0.0000
vn -0.0000 1.0000 0.0002
vn 0.9998 0.0209 0.0002
vn -0.0000 -1.0000 -0.0000
vn -0.0000 -0.9712 -0.2381
vn -0.0000 -0.6988 -0.7154
vn -0.0000 -0.2615 -0.9652
vn -0.0000 0.2663 -0.9639
vn -0.0000 0.7071 -0.7071
vn -0.0000 0.9628 -0.2703
vn -0.0000 1.0000 -0.0000
vn -0.9999 0.0120 0.0104
vn -1.0000 -0.0000 -0.0000
vn -0.9998 0.0209 0.0002
vn -0.0000 -0.9698 -0.2440
vn -0.0000 -0.7289 -0.6846
vn -0.0000 -0.2758 -0.9612
vn -0.0000 0.2679 -0.9634
vn -0.0000 0.7289 -0.6846
vn -0.0000 0.9685 -0.2490
vn 0.9999 0.0120 -0.0104
vn -0.0000 1.0000 -0.0002
vn 0.9998 0.0209 -0.0002
vn -0.0000 -0.9712 0.2381
vn -0.0000 -0.6988 0.7154
vn -0.0000 -0.2615 0.9652
vn -0.0000 0.2663 0.9639
vn -0.0000 0.7071 0.7071
vn -0.0000 0.9628 0.2703
vn -0.9999 0.0120 -0.0104
vn -0.9998 0.0209 -0.0002
vt 0.674481 0.546770
vt 0.762711 0.546770
vt 0.762711 0.566331
vt 0.674481 0.566331
vt 0.875779 0.193595
vt 0.783013 0.193595
vt 0.783013 0.175995
vt 0.875779 0.175995
vt 0.783013 0.156215
vt 0.875779 0.156215
vt 0.783013 0.138719
vt 0.875779 0.138719
vt 0.112447 0.022271
vt 0.201489 0.022271
vt 0.201489 0.036723
vt 0.112447 0.036723
vt 0.201489 0.056388
vt 0.112447 0.056388
vt 0.284830 0.585720
vt 0.277438 0.580535
vt 0.280938 0.566256
vt 0.289834 0.566256
vt 0.271395 0.600025
vt 0.266986 0.590745
vt 0.252756 0.605209
vt 0.252756 0.594600
vt 0.234691 0.600025
vt 0.238914 0.590775
vt 0.221256 0.585720
vt 0.228480 0.580341
vt 0.216339 0.566180
vt 0.224505 0.566180
vt 0.201615 0.311638
vt 0.112447 0.311638
vt 0.280938 0.313605
vt 0.289877 0.313605
vt 0.976469 0.799800
vt 0.888071 0.799800
vt 0.888071 0.546960
vt 0.976469 0.546960
vt 0.976220 0.814090
vt 0.888019 0.814090
vt 0.781873 0.046424
vt 0.874165 0.046423
vt 0.874165 0.059793
vt 0.781873 0.059793
vt 0.781873 0.030984
vt 0.874165 0.030984
vt 0.781873 0.018051
vt 0.874165 0.018051
vt 0.571476 0.032401
vt 0.482574 0.032401
vt 0.482574 0.021875
vt 0.571476 0.021875
vt 0.571476 0.046685
vt 0.482574 0.046685
vt 0.571476 0.301458
vt 0.482574 0.301458
vt 0.674481 0.293923
vt 0.762711 0.293923
vt 0.216339 0.313605
vt 0.224505 0.313605
vt 0.586251 0.566331
vt 0.586251 0.546770
vt 0.968546 0.175995
vt 0.968546 0.193595
vt 0.968546 0.156215
vt 0.968546 0.138719
vt 0.023406 0.036723
vt 0.023406 0.022271
vt 0.023406 0.056388
vt 0.373092 0.041489
vt 0.378096 0.060954
vt 0.369200 0.060954
vt 0.365701 0.046674
vt 0.359658 0.027185
vt 0.355249 0.036465
vt 0.341018 0.022001
vt 0.341018 0.032610
vt 0.322953 0.027185
vt 0.327177 0.036434
vt 0.309519 0.041489
vt 0.316742 0.046869
vt 0.304601 0.061030
vt 0.312767 0.061030
vt 0.023280 0.311638
vt 0.378139 0.313605
vt 0.369200 0.313605
vt 0.872445 0.294120
vt 0.872445 0.546960
vt 0.784048 0.546960
vt 0.784048 0.294120
vt 0.872196 0.279830
vt 0.783995 0.279830
vt 0.966458 0.046423
vt 0.966458 0.059793
vt 0.966458 0.030984
vt 0.966458 0.018051
vt 0.393672 0.032401
vt 0.393672 0.021875
vt 0.393672 0.046685
vt 0.393672 0.301458
vt 0.586251 0.293923
vt 0.312767 0.313605
vt 0.304601 0.313605
vt 0.674481 0.041075
vt 0.674481 0.021514
vt 0.762711 0.021514
vt 0.762711 0.041075
vt 0.876830 0.208068
vt 0.876830 0.225668
vt 0.784063 0.225668
vt 0.784063 0.208068
vt 0.876830 0.245448
vt 0.784063 0.245448
vt 0.876830 0.262944
vt 0.784063 0.262944
vt 0.112447 0.601006
vt 0.112447 0.586554
vt 0.201489 0.586554
vt 0.201489 0.601006
vt 0.112447 0.566889
vt 0.201489 0.566889
vt 0.284830 0.041489
vt 0.289834 0.060954
vt 0.280938 0.060954
vt 0.277438 0.046674
vt 0.271395 0.027185
vt 0.266986 0.036465
vt 0.252756 0.022001
vt 0.252756 0.032609
vt 0.234691 0.027185
vt 0.238914 0.036434
vt 0.221256 0.041489
vt 0.228480 0.046869
vt 0.216339 0.061030
vt 0.224505 0.061030
vt 0.976469 0.294120
vt 0.888071 0.294120
vt 0.976220 0.279830
vt 0.888019 0.279830
vt 0.967530 0.109164
vt 0.967530 0.122534
vt 0.875237 0.122534
vt 0.875237 0.109164
vt 0.967530 0.093725
vt 0.875237 0.093725
vt 0.967530 0.080792
vt 0.875237 0.080792
vt 0.571476 0.570516
vt 0.571476 0.581042
vt 0.482574 0.581042
vt 0.482574 0.570516
vt 0.571476 0.556232
vt 0.482574 0.556232
vt 0.586251 0.041075
vt 0.586251 0.021514
vt 0.969597 0.208068
vt 0.969597 0.225668
vt 0.969597 0.245448
vt 0.969597 0.262944
vt 0.023406 0.601006
vt 0.023406 0.586554
vt 0.023406 0.566889
vt 0.373092 0.585720
vt 0.365701 0.580535
vt 0.369200 0.566256
vt 0.378096 0.566256
vt 0.359658 0.600025
vt 0.355249 0.590745
vt 0.341018 0.605209
vt 0.341018 0.594600
vt 0.322953 0.600025
vt 0.327177 0.590775
vt 0.309519 0.585720
vt 0.316742 0.580341
vt 0.304601 0.566180
vt 0.312767 0.566180
vt 0.872445 0.799800
vt 0.784048 0.799800
vt 0.872196 0.814091
vt 0.783996 0.814091
vt 0.782944 0.109164
vt 0.782944 0.122534
vt 0.782944 0.093725
vt 0.782944 0.080792
vt 0.393672 0.570516
vt 0.393672 0.581042
vt 0.393672 0.556232
s 0
f 65/39/15 49/40/15 50/41/15 66/42/15
f 66/43/16 50/44/16 51/45/16 67/46/16
f 67/46/17 51/45/17 52/47/17 68/48/17
f 68/48/18 52/47/18 53/49/18 69/50/18
f 69/51/19 53/52/19 54/53/19 70/54/19
f 70/54/20 54/53/20 55/55/20 71/56/20
f 54/57/21 62/58/21 56/59/21 55/60/21
f 53/61/22 61/62/22 62/58/22 54/57/22
f 52/63/22 60/64/22 61/62/22 53/61/22
f 51/65/22 59/66/22 60/64/22 52/63/22
f 50/67/22 58/68/22 59/66/22 51/65/22
f 49/69/22 57/70/22 58/68/22 50/67/22
f 71/56/23 55/55/23 64/71/23 79/72/23
f 55/60/24 56/59/24 63/73/24 64/74/24
f 56/75/25 72/76/25 80/77/25 63/78/25
f 62/79/26 78/80/26 72/76/26 56/75/26
f 61/81/27 77/82/27 78/83/27 62/84/27
f 60/85/28 76/86/28 77/82/28 61/81/28
f 59/87/29 75/88/29 76/86/29 60/85/29
f 58/89/30 74/90/30 75/91/30 59/92/30
f 57/93/31 73/94/31 74/90/31 58/89/31
f 73/94/32 57/93/32 81/95/32 84/96/32
f 49/40/25 65/39/25 83/97/25 82/98/25
f 57/70/22 49/69/22 82/99/22 81/100/22
f 65/39/15 66/42/15 86/101/15 85/102/15
f 66/43/16 67/46/16 87/103/16 86/104/16
f 67/46/17 68/48/17 88/105/17 87/103/17
f 68/48/18 69/50/18 89/106/18 88/105/18
f 69/51/19 70/54/19 90/107/19 89/108/19
f 70/54/20 71/56/20 91/109/20 90/107/20
f 90/110/33 91/111/33 92/112/33 98/113/33
f 89/114/34 90/110/34 98/113/34 97/115/34
f 88/116/34 89/114/34 97/115/34 96/117/34
f 87/118/34 88/116/34 96/117/34 95/119/34
f 86/120/34 87/118/34 95/119/34 94/121/34
f 85/122/34 86/120/34 94/121/34 93/123/34
f 71/56/23 79/72/23 100/124/23 91/109/23
f 91/111/35 100/125/35 99/126/35 92/112/35
f 92/127/25 99/128/25 102/129/25 101/130/25
f 98/131/26 92/127/26 101/130/26 78/132/26
f 97/133/27 98/134/27 78/83/27 77/82/27
f 96/135/28 97/133/28 77/82/28 76/86/28
f 95/136/29 96/135/29 76/86/29 75/88/29
f 94/137/30 95/138/30 75/91/30 74/90/30
f 93/139/31 94/137/31 74/90/31 73/94/31
f 73/94/32 84/96/32 103/140/32 93/139/32
f 85/102/25 104/141/25 83/97/25 65/39/25
f 93/123/34 103/142/34 104/143/34 85/122/34
f 119/144/36 120/145/36 106/146/36 105/147/36
f 120/148/37 121/149/37 107/150/37 106/151/37
f 121/149/38 122/152/38 108/153/38 107/150/38
f 122/152/39 123/154/39 109/155/39 108/153/39
f 123/156/40 124/157/40 110/158/40 109/159/40
f 124/157/41 125/160/41 111/161/41 110/158/41
f 110/162/42 111/163/42 112/164/42 118/165/42
f 109/166/22 110/162/22 118/165/22 117/167/22
f 108/168/22 109/166/22 117/167/22 116/169/22
f 107/170/22 108/168/22 116/169/22 115/171/22
f 106/172/22 107/170/22 115/171/22 114/173/22
f 105/174/22 106/172/22 114/173/22 113/175/22
f 125/160/43 79/72/43 64/71/43 111/161/43
f 111/163/44 64/74/44 63/73/44 112/164/44
f 112/176/25 63/78/25 80/77/25 126/177/25
f 118/178/45 112/176/45 126/177/45 132/179/45
f 117/180/46 118/181/46 132/182/46 131/183/46
f 116/184/47 117/180/47 131/183/47 130/185/47
f 115/186/48 116/184/48 130/185/48 129/187/48
f 114/188/49 115/189/49 129/190/49 128/191/49
f 113/192/50 114/188/50 128/191/50 127/193/50
f 127/193/32 84/96/32 81/95/32 113/192/32
f 105/147/25 82/98/25 83/97/25 119/144/25
f 113/175/22 81/100/22 82/99/22 105/174/22
f 119/144/36 133/194/36 134/195/36 120/145/36
f 120/148/37 134/196/37 135/197/37 121/149/37
f 121/149/38 135/197/38 136/198/38 122/152/38
f 122/152/39 136/198/39 137/199/39 123/154/39
f 123/156/40 137/200/40 138/201/40 124/157/40
f 124/157/41 138/201/41 139/202/41 125/160/41
f 138/203/51 146/204/51 140/205/51 139/206/51
f 137/207/34 145/208/34 146/204/34 138/203/34
f 136/209/34 144/210/34 145/208/34 137/207/34
f 135/211/34 143/212/34 144/210/34 136/209/34
f 134/213/34 142/214/34 143/212/34 135/211/34
f 133/215/34 141/216/34 142/214/34 134/213/34
f 125/160/43 139/202/43 100/124/43 79/72/43
f 139/206/52 140/205/52 99/126/52 100/125/52
f 140/217/25 147/218/25 102/129/25 99/128/25
f 146/219/45 132/220/45 147/218/45 140/217/45
f 145/221/46 131/183/46 132/182/46 146/222/46
f 144/223/47 130/185/47 131/183/47 145/221/47
f 143/224/48 129/187/48 130/185/48 144/223/48
f 142/225/49 128/191/49 129/190/49 143/226/49
f 141/227/50 127/193/50 128/191/50 142/225/50
f 127/193/32 141/227/32 103/140/32 84/96/32
f 133/194/25 119/144/25 83/97/25 104/141/25
f 141/216/34 133/215/34 104/143/34 103/142/34
o Cylinder.002
v -1.517664 -0.000000 2.664102
v 1.517664 0.000000 2.664102
v -1.517664 -0.266801 2.735591
v 1.517664 -0.266800 2.735591
v -1.517664 -0.462112 2.930902
v 1.517664 -0.462112 2.930902
v -1.517664 -0.533601 3.197703
v 1.517664 -0.533601 3.197703
v -1.517664 -0.462112 3.464503
v 1.517664 -0.462112 3.464503
v -1.517664 -0.266801 3.659815
v 1.517664 -0.266800 3.659815
v -1.517664 -0.000000 3.731304
v 1.517664 0.000000 3.731304
v -1.517664 0.266800 3.659815
v 1.517664 0.266801 3.659815
v -1.517664 0.462112 3.464503
v 1.517664 0.462112 3.464503
v -1.517664 0.533601 3.197703
v 1.517664 0.533601 3.197703
v -1.517664 0.462112 2.930902
v 1.517664 0.462112 2.930902
v -1.517664 0.266800 2.735591
v 1.517664 0.266801 2.735591
v -1.517664 -0.000000 1.063298
v 1.517664 0.000000 1.063298
v -1.517664 -0.266801 1.134787
v 1.517664 -0.266800 1.134787
v -1.517664 -0.462112 1.330099
v 1.517664 -0.462112 1.330099
v -1.517664 -0.533601 1.596899
v 1.517664 -0.533601 1.596899
v -1.517664 -0.462112 1.863699
v 1.517664 -0.462112 1.863699
v -1.517664 -0.266801 2.059011
v 1.517664 -0.266800 2.059011
v -1.517664 -0.000000 2.130500
v 1.517664 0.000000 2.130500
v -1.517664 0.266800 2.059011
v 1.517664 0.266801 2.059011
v -1.517664 0.462112 1.863699
v 1.517664 0.462112 1.863699
v -1.517664 0.533601 1.596899
v 1.517664 0.533601 1.596899
v -1.517664 0.462112 1.330099
v 1.517664 0.462112 1.330099
v -1.517664 0.266800 1.134787
v 1.517664 0.266801 1.134787
v -1.517664 -0.000000 -0.537506
v 1.517664 0.000000 -0.537506
v -1.517664 -0.266801 -0.466017
v 1.517664 -0.266800 -0.466017
v -1.517664 -0.462112 -0.270705
v 1.517664 -0.462112 -0.270705
v -1.517664 -0.533601 -0.003905
v 1.517664 -0.533601 -0.003905
v -1.517664 -0.462112 0.262896
v 1.517664 -0.462112 0.262896
v -1.517664 -0.266801 0.458207
v 1.517664 -0.266800 0.458207
v -1.517664 -0.000000 0.529696
v 1.517664 0.000000 0.529696
v -1.517664 0.266800 0.458207
v 1.517664 0.266801 0.458207
v -1.517664 0.462112 0.262896
v 1.517664 0.462112 0.262896
v -1.517664 0.533601 -0.003905
v 1.517664 0.533601 -0.003905
v -1.517664 0.462112 -0.270705
v 1.517664 0.462112 -0.270705
v -1.517664 0.266800 -0.466017
v 1.517664 0.266801 -0.466017
v -1.517664 -0.000000 -2.138310
v 1.517664 0.000000 -2.138310
v -1.517664 -0.266801 -2.066821
v 1.517664 -0.266800 -2.066821
v -1.517664 -0.462112 -1.871509
v 1.517664 -0.462112 -1.871509
v -1.517664 -0.533601 -1.604709
v 1.517664 -0.533601 -1.604709
v -1.517664 -0.462112 -1.337908
v 1.517664 -0.462112 -1.337908
v -1.517664 -0.266801 -1.142597
v 1.517664 -0.266800 -1.142597
v -1.517664 -0.000000 -1.071107
v 1.517664 0.000000 -1.071107
v -1.517664 0.266800 -1.142597
v 1.517664 0.266801 -1.142597
v -1.517664 0.462112 -1.337908
v 1.517664 0.462112 -1.337908
v -1.517664 0.533601 -1.604709
v 1.517664 0.533601 -1.604709
v -1.517664 0.462112 -1.871509
v 1.517664 0.462112 -1.871509
v -1.517664 0.266800 -2.066821
v 1.517664 0.266801 -2.066821
v -1.517664 -0.000000 -3.739114
v 1.517664 0.000000 -3.739114
v -1.517664 -0.266801 -3.667624
v 1.517664 -0.266800 -3.667624
v -1.517664 -0.462112 -3.472313
v 1.517664 -0.462112 -3.472313
v -1.517664 -0.533601 -3.205513
v 1.517664 -0.533601 -3.205513
v -1.517664 -0.462112 -2.938712
v 1.517664 -0.462112 -2.938712
v -1.517664 -0.266801 -2.743401
v 1.517664 -0.266800 -2.743401
v -1.517664 -0.000000 -2.671911
v 1.517664 0.000000 -2.671911
v -1.517664 0.266800 -2.743401
v 1.517664 0.266801 -2.743401
v -1.517664 0.462112 -2.938712
v 1.517664 0.462112 -2.938712
v -1.517664 0.533601 -3.205513
v 1.517664 0.533601 -3.205513
v -1.517664 0.462112 -3.472313
v 1.517664 0.462112 -3.472313
v -1.517664 0.266800 -3.667624
v 1.517664 0.266801 -3.667624
vn -0.0000 -0.2588 -0.9659
vn -0.0000 -0.7071 -0.7071
vn -0.0000 -0.9659 -0.2588
vn -0.0000 0.9659 -0.2588
vn 1.0000 -0.0000 -0.0000
vn -0.0000 0.7071 -0.7071
vn -0.0000 0.2588 -0.9659
vn -1.0000 -0.0000 -0.0000
vn -0.0000 0.9659 0.2588
vn -0.0000 0.7071 0.7071
vn -0.0000 0.2588 0.9659
vn -0.0000 -0.2588 0.9659
vn -0.0000 -0.7071 0.7071
vn -0.0000 -0.9659 0.2588
vt 0.179094 0.808078
vt 0.179094 0.975733
vt 0.163837 0.975733
vt 0.163837 0.808078
vt 0.148581 0.975733
vt 0.148581 0.808078
vt 0.133324 0.975733
vt 0.133324 0.808078
vt 0.224863 0.808078
vt 0.224863 0.975733
vt 0.209606 0.975733
vt 0.209606 0.808078
vt 0.413596 0.864172
vt 0.405968 0.850960
vt 0.405968 0.835703
vt 0.413596 0.822491
vt 0.426808 0.814862
vt 0.442065 0.814863
vt 0.455277 0.822491
vt 0.462906 0.835703
vt 0.462906 0.850960
vt 0.455277 0.864172
vt 0.442065 0.871801
vt 0.426808 0.871801
vt 0.194350 0.975733
vt 0.194350 0.808078
vt 0.513303 0.871615
vt 0.520931 0.884828
vt 0.520931 0.900084
vt 0.513303 0.913297
vt 0.500091 0.920925
vt 0.484834 0.920925
vt 0.471622 0.913297
vt 0.463993 0.900084
vt 0.463993 0.884828
vt 0.471622 0.871615
vt 0.484834 0.863987
vt 0.500091 0.863987
vt 0.240120 0.808078
vt 0.240120 0.975733
vt 0.255376 0.808078
vt 0.255376 0.975733
vt 0.270632 0.808078
vt 0.270633 0.975733
vt 0.285889 0.808078
vt 0.285889 0.975733
vt 0.301145 0.808078
vt 0.301145 0.975733
vt 0.316402 0.975733
vt 0.316402 0.808078
s 0
f 148/228/53 149/229/53 151/230/53 150/231/53
f 150/231/54 151/230/54 153/232/54 152/233/54
f 152/233/55 153/232/55 155/234/55 154/235/55
f 166/236/56 167/237/56 169/238/56 168/239/56
f 151/240/57 149/241/57 171/242/57 169/243/57 167/244/57 165/245/57 163/246/57 161/247/57 159/248/57 157/249/57 155/250/57 153/251/57
f 168/239/58 169/238/58 171/252/58 170/253/58
f 170/253/59 171/252/59 149/229/59 148/228/59
f 148/254/60 150/255/60 152/256/60 154/257/60 156/258/60 158/259/60 160/260/60 162/261/60 164/262/60 166/263/60 168/264/60 170/265/60
f 164/266/61 165/267/61 167/237/61 166/236/61
f 162/268/62 163/269/62 165/267/62 164/266/62
f 160/270/63 161/271/63 163/269/63 162/268/63
f 158/272/64 159/273/64 161/271/64 160/270/64
f 156/274/65 157/275/65 159/273/65 158/272/65
f 155/276/66 157/275/66 156/274/66 154/277/66
f 172/228/53 173/229/53 175/230/53 174/231/53
f 174/231/54 175/230/54 177/232/54 176/233/54
f 176/233/55 177/232/55 179/234/55 178/235/55
f 190/236/56 191/237/56 193/238/56 192/239/56
f 175/240/57 173/241/57 195/242/57 193/243/57 191/244/57 189/245/57 187/246/57 185/247/57 183/248/57 181/249/57 179/250/57 177/251/57
f 192/239/58 193/238/58 195/252/58 194/253/58
f 194/253/59 195/252/59 173/229/59 172/228/59
f 172/254/60 174/255/60 176/256/60 178/257/60 180/258/60 182/259/60 184/260/60 186/261/60 188/262/60 190/263/60 192/264/60 194/265/60
f 188/266/61 189/267/61 191/237/61 190/236/61
f 186/268/62 187/269/62 189/267/62 188/266/62
f 184/270/63 185/271/63 187/269/63 186/268/63
f 182/272/64 183/273/64 185/271/64 184/270/64
f 180/274/65 181/275/65 183/273/65 182/272/65
f 179/276/66 181/275/66 180/274/66 178/277/66
f 196/228/53 197/229/53 199/230/53 198/231/53
f 198/231/54 199/230/54 201/232/54 200/233/54
f 200/233/55 201/232/55 203/234/55 202/235/55
f 214/236/56 215/237/56 217/238/56 216/239/56
f 199/240/57 197/241/57 219/242/57 217/243/57 215/244/57 213/245/57 211/246/57 209/247/57 207/248/57 205/249/57 203/250/57 201/251/57
f 216/239/58 217/238/58 219/252/58 218/253/58
f 218/253/59 219/252/59 197/229/59 196/228/59
f 196/254/60 198/255/60 200/256/60 202/257/60 204/258/60 206/259/60 208/260/60 210/261/60 212/262/60 214/263/60 216/264/60 218/265/60
f 212/266/61 213/267/61 215/237/61 214/236/61
f 210/268/62 211/269/62 213/267/62 212/266/62
f 208/270/63 209/271/63 211/269/63 210/268/63
f 206/272/64 207/273/64 209/271/64 208/270/64
f 204/274/65 205/275/65 207/273/65 206/272/65
f 203/276/66 205/275/66 204/274/66 202/277/66
f 220/228/53 221/229/53 223/230/53 222/231/53
f 222/231/54 223/230/54 225/232/54 224/233/54
f 224/233/55 225/232/55 227/234/55 226/235/55
f 238/236/56 239/237/56 241/238/56 240/239/56
f 223/240/57 221/241/57 243/242/57 241/243/57 239/244/57 237/245/57 235/246/57 233/247/57 231/248/57 229/249/57 227/250/57 225/251/57
f 240/239/58 241/238/58 243/252/58 242/253/58
f 242/253/59 243/252/59 221/229/59 220/228/59
f 220/254/60 222/255/60 224/256/60 226/257/60 228/258/60 230/259/60 232/260/60 234/261/60 236/262/60 238/263/60 240/264/60 242/265/60
f 236/266/61 237/267/61 239/237/61 238/236/61
f 234/268/62 235/269/62 237/267/62 236/266/62
f 232/270/63 233/271/63 235/269/63 234/268/63
f 230/272/64 231/273/64 233/271/64 232/270/64
f 228/274/65 229/275/65 231/273/65 230/272/65
f 227/276/66 229/275/66 228/274/66 226/277/66
f 244/228/53 245/229/53 247/230/53 246/231/53
f 246/231/54 247/230/54 249/232/54 248/233/54
f 248/233/55 249/232/55 251/234/55 250/235/55
f 262/236/56 263/237/56 265/238/56 264/239/56
f 247/240/57 245/241/57 267/242/57 265/243/57 263/244/57 261/245/57 259/246/57 257/247/57 255/248/57 253/249/57 251/250/57 249/251/57
f 264/239/58 265/238/58 267/252/58 266/253/58
f 266/253/59 267/252/59 245/229/59 244/228/59
f 244/254/60 246/255/60 248/256/60 250/257/60 252/258/60 254/259/60 256/260/60 258/261/60 260/262/60 262/263/60 264/264/60 266/265/60
f 260/266/61 261/267/61 263/237/61 262/236/61
f 258/268/62 259/269/62 261/267/62 260/266/62
f 256/270/63 257/271/63 259/269/63 258/268/63
f 254/272/64 255/273/64 257/271/64 256/270/64
f 252/274/65 253/275/65 255/273/65 254/272/65
f 251/276/66 253/275/66 252/274/66 250/277/66
